<svg width="303" height="95" viewBox="0 0 303 95" fill="none" xmlns="http://www.w3.org/2000/svg">
<path d="M20.5527 55.8672C20.5527 56.2637 20.5322 56.5986 20.4912 56.8721C20.4639 57.1455 20.416 57.3711 20.3477 57.5488C20.2793 57.7129 20.1904 57.8291 20.0811 57.8975C19.9854 57.9658 19.876 58 19.7529 58H4.10547C3.55859 58 3.13477 57.8428 2.83398 57.5283C2.54688 57.2139 2.40332 56.7559 2.40332 56.1543V55.252C2.40332 54.9785 2.41699 54.7324 2.44434 54.5137C2.48535 54.2812 2.54688 54.0488 2.62891 53.8164C2.71094 53.584 2.82715 53.3311 2.97754 53.0576C3.1416 52.7842 3.33984 52.4561 3.57227 52.0732L13.8672 35.749H3.6543C3.49023 35.749 3.34668 35.7148 3.22363 35.6465C3.11426 35.5645 3.01855 35.4414 2.93652 35.2773C2.86816 35.1133 2.81348 34.8945 2.77246 34.6211C2.74512 34.3477 2.73145 34.0195 2.73145 33.6367C2.73145 33.2266 2.74512 32.8848 2.77246 32.6113C2.81348 32.3242 2.86816 32.0986 2.93652 31.9346C3.01855 31.7568 3.11426 31.6338 3.22363 31.5654C3.34668 31.4971 3.49023 31.4629 3.6543 31.4629H18.3174C18.8779 31.4629 19.2881 31.6064 19.5479 31.8936C19.8213 32.1807 19.958 32.584 19.958 33.1035V34.1084C19.958 34.4775 19.9375 34.7988 19.8965 35.0723C19.8691 35.332 19.8076 35.5918 19.7119 35.8516C19.6299 36.0977 19.5137 36.3574 19.3633 36.6309C19.2129 36.8906 19.0215 37.2051 18.7891 37.5742L8.6582 53.6729H19.7529C20.0127 53.6729 20.2109 53.8369 20.3477 54.165C20.4844 54.4932 20.5527 55.0605 20.5527 55.8672ZM40.0762 55.8877C40.0762 56.2842 40.0557 56.6191 40.0146 56.8926C39.9873 57.1523 39.9395 57.3643 39.8711 57.5283C39.8027 57.6924 39.7139 57.8154 39.6045 57.8975C39.5088 57.9658 39.3994 58 39.2764 58H25.9463C25.4951 58 25.1123 57.8701 24.7979 57.6104C24.4971 57.3369 24.3467 56.8994 24.3467 56.2979V33.165C24.3467 32.5635 24.4971 32.1328 24.7979 31.873C25.1123 31.5996 25.4951 31.4629 25.9463 31.4629H39.1943C39.3174 31.4629 39.4268 31.4971 39.5225 31.5654C39.6182 31.6338 39.7002 31.7568 39.7686 31.9346C39.8369 32.0986 39.8848 32.3174 39.9121 32.5908C39.9531 32.8506 39.9736 33.1855 39.9736 33.5957C39.9736 33.9785 39.9531 34.3066 39.9121 34.5801C39.8848 34.8398 39.8369 35.0518 39.7686 35.2158C39.7002 35.3799 39.6182 35.5029 39.5225 35.585C39.4268 35.6533 39.3174 35.6875 39.1943 35.6875H29.7197V42.168H37.7383C37.8613 42.168 37.9707 42.209 38.0664 42.291C38.1758 42.3594 38.2646 42.4756 38.333 42.6396C38.4014 42.79 38.4492 43.002 38.4766 43.2754C38.5176 43.5352 38.5381 43.8564 38.5381 44.2393C38.5381 44.6357 38.5176 44.9639 38.4766 45.2236C38.4492 45.4834 38.4014 45.6953 38.333 45.8594C38.2646 46.0098 38.1758 46.1191 38.0664 46.1875C37.9707 46.2559 37.8613 46.29 37.7383 46.29H29.7197V53.7754H39.2764C39.3994 53.7754 39.5088 53.8164 39.6045 53.8984C39.7139 53.9668 39.8027 54.083 39.8711 54.2471C39.9395 54.4111 39.9873 54.6299 40.0146 54.9033C40.0557 55.1631 40.0762 55.4912 40.0762 55.8877ZM64.542 57.3027C64.542 57.4531 64.5146 57.583 64.46 57.6924C64.4053 57.7881 64.2754 57.8701 64.0703 57.9385C63.8652 58.0068 63.5645 58.0547 63.168 58.082C62.7715 58.1094 62.2314 58.123 61.5479 58.123C60.9736 58.123 60.5156 58.1094 60.1738 58.082C59.832 58.0547 59.5586 58.0068 59.3535 57.9385C59.1621 57.8564 59.0254 57.7607 58.9434 57.6514C58.8613 57.5283 58.793 57.3848 58.7383 57.2207L56.3594 51.2939C56.0723 50.624 55.792 50.0293 55.5186 49.5098C55.2451 48.9902 54.9375 48.5596 54.5957 48.2178C54.2676 47.8623 53.8848 47.5957 53.4473 47.418C53.0098 47.2402 52.5039 47.1514 51.9297 47.1514H50.248V57.2617C50.248 57.3984 50.2002 57.5215 50.1045 57.6309C50.0225 57.7402 49.8789 57.8291 49.6738 57.8975C49.4688 57.9658 49.1953 58.0205 48.8535 58.0615C48.5117 58.1025 48.0742 58.123 47.541 58.123C47.0215 58.123 46.584 58.1025 46.2285 58.0615C45.8867 58.0205 45.6133 57.9658 45.4082 57.8975C45.2031 57.8291 45.0596 57.7402 44.9775 57.6309C44.8955 57.5215 44.8545 57.3984 44.8545 57.2617V33.165C44.8545 32.5635 45.0049 32.1328 45.3057 31.873C45.6201 31.5996 46.0029 31.4629 46.4541 31.4629H53.3242C54.0215 31.4629 54.5957 31.4766 55.0469 31.5039C55.498 31.5312 55.9082 31.5654 56.2773 31.6064C57.3438 31.7568 58.3008 32.0166 59.1484 32.3857C60.0098 32.7549 60.7344 33.2402 61.3223 33.8418C61.9238 34.4297 62.3818 35.1338 62.6963 35.9541C63.0107 36.7607 63.168 37.6904 63.168 38.7432C63.168 39.6318 63.0518 40.4453 62.8193 41.1836C62.6006 41.9082 62.2725 42.5576 61.835 43.1318C61.3975 43.7061 60.8574 44.2051 60.2148 44.6289C59.5723 45.0527 58.8408 45.3945 58.0205 45.6543C58.417 45.8457 58.7861 46.0781 59.1279 46.3516C59.4834 46.625 59.8115 46.96 60.1123 47.3564C60.4268 47.7393 60.7207 48.1836 60.9941 48.6895C61.2676 49.1816 61.5342 49.7422 61.7939 50.3711L64.0293 55.6006C64.2344 56.1201 64.3711 56.5029 64.4395 56.749C64.5078 56.9814 64.542 57.166 64.542 57.3027ZM57.5898 39.2969C57.5898 38.4219 57.3916 37.6836 56.9951 37.082C56.5986 36.4805 55.9492 36.0566 55.0469 35.8105C54.7734 35.7422 54.459 35.6875 54.1035 35.6465C53.7617 35.6055 53.2832 35.585 52.668 35.585H50.248V43.1113H52.9961C53.7617 43.1113 54.4316 43.0225 55.0059 42.8447C55.5801 42.6533 56.0586 42.3936 56.4414 42.0654C56.8242 41.7236 57.1113 41.3203 57.3027 40.8555C57.4941 40.3906 57.5898 39.8711 57.5898 39.2969ZM91.9814 44.4238C91.9814 46.625 91.708 48.5938 91.1611 50.3301C90.6143 52.0664 89.8008 53.543 88.7207 54.7598C87.6406 55.9629 86.3008 56.8857 84.7012 57.5283C83.1152 58.1572 81.2764 58.4717 79.1846 58.4717C77.1201 58.4717 75.3154 58.2051 73.7705 57.6719C72.2393 57.125 70.9609 56.2979 69.9355 55.1904C68.9102 54.083 68.1377 52.6748 67.6182 50.9658C67.1123 49.2568 66.8594 47.2334 66.8594 44.8955C66.8594 42.749 67.1328 40.8213 67.6797 39.1123C68.2266 37.3896 69.04 35.9268 70.1201 34.7236C71.2002 33.5205 72.5332 32.5977 74.1191 31.9551C75.7188 31.3125 77.5713 30.9912 79.6768 30.9912C81.6865 30.9912 83.457 31.2578 84.9883 31.791C86.5332 32.3242 87.8184 33.1445 88.8438 34.252C89.8828 35.3594 90.6621 36.7607 91.1816 38.4561C91.7148 40.1377 91.9814 42.127 91.9814 44.4238ZM86.3213 44.7109C86.3213 43.3164 86.2119 42.0518 85.9932 40.917C85.7744 39.7686 85.3984 38.791 84.8652 37.9844C84.3457 37.1641 83.6484 36.5352 82.7734 36.0977C81.8984 35.6465 80.8047 35.4209 79.4922 35.4209C78.166 35.4209 77.0586 35.6738 76.1699 36.1797C75.2812 36.6719 74.5635 37.335 74.0166 38.1689C73.4697 39.0029 73.0801 39.9805 72.8477 41.1016C72.6289 42.209 72.5195 43.3848 72.5195 44.6289C72.5195 46.0781 72.6289 47.3838 72.8477 48.5459C73.0664 49.6943 73.4355 50.6787 73.9551 51.499C74.4746 52.3193 75.1719 52.9482 76.0469 53.3857C76.9219 53.8096 78.0225 54.0215 79.3486 54.0215C80.6748 54.0215 81.7822 53.7754 82.6709 53.2832C83.5596 52.791 84.2773 52.1211 84.8242 51.2734C85.3711 50.4258 85.7539 49.4414 85.9727 48.3203C86.2051 47.1855 86.3213 45.9824 86.3213 44.7109Z" fill="black"/>
<path d="M124.594 56.1836C124.848 56.6133 124.994 56.9551 125.033 57.209C125.092 57.4629 125.033 57.668 124.857 57.8242C124.682 57.9609 124.389 58.0488 123.979 58.0879C123.588 58.1465 123.061 58.1758 122.396 58.1758C121.771 58.1758 121.283 58.1562 120.932 58.1172C120.58 58.0977 120.297 58.0488 120.082 57.9707C119.887 57.8926 119.73 57.8047 119.613 57.707C119.516 57.5898 119.428 57.4434 119.35 57.2676L110.912 42.1797L102.387 57.2676C102.289 57.4434 102.182 57.5898 102.064 57.707C101.947 57.8242 101.781 57.9219 101.566 58C101.371 58.0586 101.098 58.0977 100.746 58.1172C100.395 58.1562 99.9258 58.1758 99.3398 58.1758C98.6953 58.1758 98.1875 58.1465 97.8164 58.0879C97.4453 58.0488 97.1816 57.9609 97.0254 57.8242C96.8887 57.668 96.8398 57.4629 96.8789 57.209C96.9375 56.9551 97.0938 56.6133 97.3477 56.1836L107.689 38.752L97.8164 21.9062C97.582 21.4766 97.4258 21.1348 97.3477 20.8809C97.2891 20.6074 97.3379 20.4023 97.4941 20.2656C97.6504 20.1094 97.9238 20.0117 98.3145 19.9727C98.7051 19.9336 99.2422 19.9141 99.9258 19.9141C100.512 19.9141 100.99 19.9336 101.361 19.9727C101.732 19.9922 102.025 20.041 102.24 20.1191C102.455 20.1777 102.611 20.2754 102.709 20.4121C102.807 20.5293 102.914 20.666 103.031 20.8223L111.176 35.002L119.262 20.8223C119.359 20.666 119.457 20.5293 119.555 20.4121C119.652 20.2754 119.789 20.1777 119.965 20.1191C120.16 20.041 120.424 19.9922 120.756 19.9727C121.088 19.9336 121.537 19.9141 122.104 19.9141C122.709 19.9141 123.197 19.9434 123.568 20.002C123.959 20.041 124.232 20.1289 124.389 20.2656C124.564 20.4023 124.633 20.6074 124.594 20.8809C124.555 21.1348 124.418 21.4766 124.184 21.9062L114.34 38.6348L124.594 56.1836Z" fill="black"/>
<path d="M145.57 56.5439C145.57 56.79 145.557 57.0088 145.529 57.2002C145.502 57.3779 145.454 57.5283 145.386 57.6514C145.317 57.7744 145.235 57.8633 145.14 57.918C145.058 57.9727 144.962 58 144.853 58H132.117C131.803 58 131.502 57.8975 131.215 57.6924C130.941 57.4736 130.805 57.0977 130.805 56.5645V32.8984C130.805 32.3652 130.941 31.9961 131.215 31.791C131.502 31.5723 131.803 31.4629 132.117 31.4629H144.709C144.818 31.4629 144.914 31.4902 144.996 31.5449C145.092 31.5996 145.167 31.6885 145.222 31.8115C145.276 31.9346 145.317 32.0918 145.345 32.2832C145.386 32.4609 145.406 32.6865 145.406 32.96C145.406 33.2061 145.386 33.4248 145.345 33.6162C145.317 33.7939 145.276 33.9443 145.222 34.0674C145.167 34.1768 145.092 34.2588 144.996 34.3135C144.914 34.3682 144.818 34.3955 144.709 34.3955H134.332V42.7217H143.232C143.342 42.7217 143.438 42.7559 143.52 42.8242C143.615 42.8789 143.69 42.9609 143.745 43.0703C143.813 43.1797 143.861 43.3301 143.889 43.5215C143.916 43.7129 143.93 43.9385 143.93 44.1982C143.93 44.4443 143.916 44.6562 143.889 44.834C143.861 45.0117 143.813 45.1553 143.745 45.2646C143.69 45.374 143.615 45.4561 143.52 45.5107C143.438 45.5518 143.342 45.5723 143.232 45.5723H134.332V55.0674H144.853C144.962 55.0674 145.058 55.0947 145.14 55.1494C145.235 55.2041 145.317 55.293 145.386 55.416C145.454 55.5254 145.502 55.6758 145.529 55.8672C145.557 56.0449 145.57 56.2705 145.57 56.5439ZM171.369 56.5439C171.369 56.8174 171.321 57.0498 171.226 57.2412C171.144 57.4326 171.027 57.5898 170.877 57.7129C170.74 57.8359 170.583 57.9248 170.405 57.9795C170.228 58.0342 170.05 58.0615 169.872 58.0615H168.744C168.389 58.0615 168.074 58.0273 167.801 57.959C167.541 57.877 167.288 57.7402 167.042 57.5488C166.81 57.3438 166.57 57.0703 166.324 56.7285C166.092 56.3867 165.832 55.9492 165.545 55.416L157.178 40.3223C156.74 39.543 156.296 38.7295 155.845 37.8818C155.407 37.0205 154.997 36.1865 154.614 35.3799H154.573C154.601 36.3643 154.621 37.3691 154.635 38.3945C154.648 39.4199 154.655 40.4385 154.655 41.4502V57.4668C154.655 57.5625 154.628 57.6582 154.573 57.7539C154.519 57.8359 154.423 57.9043 154.286 57.959C154.163 58 153.992 58.0342 153.773 58.0615C153.568 58.1025 153.302 58.123 152.974 58.123C152.646 58.123 152.372 58.1025 152.153 58.0615C151.948 58.0342 151.784 58 151.661 57.959C151.538 57.9043 151.449 57.8359 151.395 57.7539C151.34 57.6582 151.312 57.5625 151.312 57.4668V32.9805C151.312 32.4336 151.463 32.0439 151.764 31.8115C152.064 31.5791 152.393 31.4629 152.748 31.4629H154.43C154.826 31.4629 155.154 31.4971 155.414 31.5654C155.688 31.6338 155.927 31.75 156.132 31.9141C156.351 32.0645 156.556 32.2832 156.747 32.5703C156.952 32.8438 157.171 33.1924 157.403 33.6162L163.843 45.2646C164.239 45.9756 164.622 46.6729 164.991 47.3564C165.36 48.0264 165.716 48.6895 166.058 49.3457C166.399 50.002 166.734 50.6514 167.062 51.2939C167.404 51.9229 167.739 52.5586 168.067 53.2012H168.088C168.061 52.1211 168.04 51 168.026 49.8379C168.026 48.6621 168.026 47.5342 168.026 46.4541V32.0576C168.026 31.9619 168.054 31.873 168.108 31.791C168.163 31.709 168.252 31.6406 168.375 31.5859C168.512 31.5176 168.683 31.4697 168.888 31.4424C169.106 31.415 169.387 31.4014 169.729 31.4014C170.029 31.4014 170.289 31.415 170.508 31.4424C170.727 31.4697 170.897 31.5176 171.021 31.5859C171.144 31.6406 171.232 31.709 171.287 31.791C171.342 31.873 171.369 31.9619 171.369 32.0576V56.5439ZM192.677 50.5557C192.677 51.7998 192.444 52.9072 191.979 53.8779C191.528 54.8486 190.893 55.6758 190.072 56.3594C189.266 57.0293 188.309 57.5352 187.201 57.877C186.107 58.2188 184.925 58.3896 183.653 58.3896C182.765 58.3896 181.938 58.3145 181.172 58.1641C180.42 58.0137 179.743 57.8291 179.142 57.6104C178.554 57.3916 178.055 57.166 177.645 56.9336C177.248 56.7012 176.968 56.5029 176.804 56.3389C176.653 56.1748 176.537 55.9697 176.455 55.7236C176.387 55.4639 176.353 55.1221 176.353 54.6982C176.353 54.3975 176.366 54.1514 176.394 53.96C176.421 53.7549 176.462 53.5908 176.517 53.4678C176.571 53.3447 176.64 53.2627 176.722 53.2217C176.804 53.167 176.899 53.1396 177.009 53.1396C177.2 53.1396 177.467 53.2559 177.809 53.4883C178.164 53.7207 178.615 53.9736 179.162 54.2471C179.709 54.5205 180.365 54.7803 181.131 55.0264C181.91 55.2588 182.806 55.375 183.817 55.375C184.583 55.375 185.28 55.2725 185.909 55.0674C186.552 54.8623 187.099 54.5752 187.55 54.2061C188.015 53.8232 188.37 53.3584 188.616 52.8115C188.862 52.2646 188.985 51.6426 188.985 50.9453C188.985 50.1934 188.814 49.5508 188.473 49.0176C188.131 48.4844 187.68 48.0195 187.119 47.623C186.559 47.2129 185.916 46.8438 185.191 46.5156C184.48 46.1738 183.749 45.832 182.997 45.4902C182.245 45.1348 181.514 44.7451 180.803 44.3213C180.092 43.8975 179.456 43.3984 178.896 42.8242C178.335 42.25 177.877 41.5801 177.521 40.8145C177.18 40.0352 177.009 39.1055 177.009 38.0254C177.009 36.918 177.207 35.9336 177.604 35.0723C178.014 34.1973 178.574 33.4658 179.285 32.8779C180.01 32.29 180.864 31.8457 181.849 31.5449C182.847 31.2305 183.92 31.0732 185.068 31.0732C185.656 31.0732 186.244 31.1279 186.832 31.2373C187.434 31.333 187.994 31.4697 188.514 31.6475C189.047 31.8115 189.519 32.0029 189.929 32.2217C190.339 32.4268 190.605 32.5977 190.729 32.7344C190.865 32.8574 190.954 32.96 190.995 33.042C191.036 33.1104 191.07 33.2061 191.098 33.3291C191.125 33.4385 191.146 33.5752 191.159 33.7393C191.173 33.9033 191.18 34.1152 191.18 34.375C191.18 34.6211 191.166 34.8398 191.139 35.0312C191.125 35.2227 191.098 35.3867 191.057 35.5234C191.016 35.6465 190.954 35.7422 190.872 35.8105C190.804 35.8652 190.722 35.8926 190.626 35.8926C190.476 35.8926 190.236 35.7969 189.908 35.6055C189.594 35.4141 189.204 35.2021 188.739 34.9697C188.274 34.7236 187.721 34.5049 187.078 34.3135C186.449 34.1084 185.738 34.0059 184.945 34.0059C184.207 34.0059 183.564 34.1084 183.018 34.3135C182.471 34.5049 182.02 34.7646 181.664 35.0928C181.309 35.4209 181.042 35.8105 180.864 36.2617C180.687 36.7129 180.598 37.1914 180.598 37.6973C180.598 38.4355 180.769 39.0713 181.11 39.6045C181.452 40.1377 181.903 40.6094 182.464 41.0195C183.038 41.4297 183.688 41.8057 184.412 42.1475C185.137 42.4893 185.875 42.8379 186.627 43.1934C187.379 43.5352 188.117 43.918 188.842 44.3418C189.566 44.752 190.209 45.2441 190.77 45.8184C191.344 46.3789 191.802 47.0488 192.144 47.8281C192.499 48.5938 192.677 49.5029 192.677 50.5557ZM212.508 56.5439C212.508 56.79 212.494 57.0088 212.467 57.2002C212.439 57.3779 212.392 57.5283 212.323 57.6514C212.255 57.7744 212.173 57.8633 212.077 57.918C211.995 57.9727 211.899 58 211.79 58H199.055C198.74 58 198.439 57.8975 198.152 57.6924C197.879 57.4736 197.742 57.0977 197.742 56.5645V32.8984C197.742 32.3652 197.879 31.9961 198.152 31.791C198.439 31.5723 198.74 31.4629 199.055 31.4629H211.646C211.756 31.4629 211.852 31.4902 211.934 31.5449C212.029 31.5996 212.104 31.6885 212.159 31.8115C212.214 31.9346 212.255 32.0918 212.282 32.2832C212.323 32.4609 212.344 32.6865 212.344 32.96C212.344 33.2061 212.323 33.4248 212.282 33.6162C212.255 33.7939 212.214 33.9443 212.159 34.0674C212.104 34.1768 212.029 34.2588 211.934 34.3135C211.852 34.3682 211.756 34.3955 211.646 34.3955H201.27V42.7217H210.17C210.279 42.7217 210.375 42.7559 210.457 42.8242C210.553 42.8789 210.628 42.9609 210.683 43.0703C210.751 43.1797 210.799 43.3301 210.826 43.5215C210.854 43.7129 210.867 43.9385 210.867 44.1982C210.867 44.4443 210.854 44.6562 210.826 44.834C210.799 45.0117 210.751 45.1553 210.683 45.2646C210.628 45.374 210.553 45.4561 210.457 45.5107C210.375 45.5518 210.279 45.5723 210.17 45.5723H201.27V55.0674H211.79C211.899 55.0674 211.995 55.0947 212.077 55.1494C212.173 55.2041 212.255 55.293 212.323 55.416C212.392 55.5254 212.439 55.6758 212.467 55.8672C212.494 56.0449 212.508 56.2705 212.508 56.5439Z" fill="black"/>
<path d="M99.9766 72.7969C99.9766 72.8385 99.9661 72.875 99.9453 72.9062C99.9245 72.9375 99.888 72.9635 99.8359 72.9844C99.7839 73 99.7135 73.013 99.625 73.0234C99.5417 73.0391 99.4349 73.0469 99.3047 73.0469C99.1797 73.0469 99.0729 73.0391 98.9844 73.0234C98.8958 73.013 98.8255 73 98.7734 72.9844C98.7214 72.9635 98.6849 72.9375 98.6641 72.9062C98.6432 72.875 98.6328 72.8385 98.6328 72.7969V63.0938C98.6328 63.0521 98.6432 63.0156 98.6641 62.9844C98.6901 62.9531 98.7292 62.9297 98.7812 62.9141C98.8385 62.8932 98.9089 62.8776 98.9922 62.8672C99.0807 62.8516 99.1849 62.8438 99.3047 62.8438C99.4349 62.8438 99.5417 62.8516 99.625 62.8672C99.7135 62.8776 99.7839 62.8932 99.8359 62.9141C99.888 62.9297 99.9245 62.9531 99.9453 62.9844C99.9661 63.0156 99.9766 63.0521 99.9766 63.0938V72.7969ZM108.57 72.8047C108.57 72.8464 108.56 72.8828 108.539 72.9141C108.518 72.9401 108.484 72.9635 108.438 72.9844C108.391 73.0052 108.326 73.0208 108.242 73.0312C108.159 73.0417 108.055 73.0469 107.93 73.0469C107.799 73.0469 107.693 73.0417 107.609 73.0312C107.526 73.0208 107.461 73.0052 107.414 72.9844C107.367 72.9635 107.333 72.9401 107.312 72.9141C107.292 72.8828 107.281 72.8464 107.281 72.8047V68.6875C107.281 68.2865 107.25 67.9635 107.188 67.7188C107.125 67.474 107.034 67.263 106.914 67.0859C106.794 66.9089 106.638 66.7734 106.445 66.6797C106.258 66.5859 106.039 66.5391 105.789 66.5391C105.466 66.5391 105.143 66.6536 104.82 66.8828C104.497 67.112 104.159 67.4479 103.805 67.8906V72.8047C103.805 72.8464 103.794 72.8828 103.773 72.9141C103.753 72.9401 103.719 72.9635 103.672 72.9844C103.625 73.0052 103.56 73.0208 103.477 73.0312C103.393 73.0417 103.286 73.0469 103.156 73.0469C103.031 73.0469 102.927 73.0417 102.844 73.0312C102.76 73.0208 102.693 73.0052 102.641 72.9844C102.594 72.9635 102.56 72.9401 102.539 72.9141C102.523 72.8828 102.516 72.8464 102.516 72.8047V65.7734C102.516 65.7318 102.523 65.6979 102.539 65.6719C102.555 65.6406 102.586 65.6146 102.633 65.5938C102.68 65.5677 102.74 65.5521 102.812 65.5469C102.885 65.5365 102.982 65.5312 103.102 65.5312C103.216 65.5312 103.31 65.5365 103.383 65.5469C103.461 65.5521 103.521 65.5677 103.562 65.5938C103.604 65.6146 103.633 65.6406 103.648 65.6719C103.669 65.6979 103.68 65.7318 103.68 65.7734V66.7031C104.076 66.2604 104.469 65.9375 104.859 65.7344C105.255 65.526 105.654 65.4219 106.055 65.4219C106.523 65.4219 106.917 65.5026 107.234 65.6641C107.557 65.8203 107.818 66.0312 108.016 66.2969C108.214 66.5625 108.354 66.875 108.438 67.2344C108.526 67.5885 108.57 68.0156 108.57 68.5156V72.8047ZM114.422 72.2891C114.422 72.4401 114.411 72.5599 114.391 72.6484C114.37 72.737 114.339 72.8021 114.297 72.8438C114.255 72.8854 114.193 72.9245 114.109 72.9609C114.026 72.9974 113.93 73.026 113.82 73.0469C113.716 73.0729 113.604 73.0938 113.484 73.1094C113.365 73.125 113.245 73.1328 113.125 73.1328C112.76 73.1328 112.448 73.0859 112.188 72.9922C111.927 72.8932 111.714 72.7474 111.547 72.5547C111.38 72.3568 111.258 72.1094 111.18 71.8125C111.107 71.5104 111.07 71.1562 111.07 70.75V66.6406H110.086C110.008 66.6406 109.945 66.599 109.898 66.5156C109.852 66.4323 109.828 66.2969 109.828 66.1094C109.828 66.0104 109.833 65.9271 109.844 65.8594C109.859 65.7917 109.878 65.737 109.898 65.6953C109.919 65.6484 109.945 65.6172 109.977 65.6016C110.013 65.5807 110.052 65.5703 110.094 65.5703H111.07V63.8984C111.07 63.862 111.078 63.8281 111.094 63.7969C111.115 63.7656 111.148 63.7396 111.195 63.7188C111.247 63.6927 111.315 63.6745 111.398 63.6641C111.482 63.6536 111.586 63.6484 111.711 63.6484C111.841 63.6484 111.948 63.6536 112.031 63.6641C112.115 63.6745 112.18 63.6927 112.227 63.7188C112.273 63.7396 112.307 63.7656 112.328 63.7969C112.349 63.8281 112.359 63.862 112.359 63.8984V65.5703H114.164C114.206 65.5703 114.242 65.5807 114.273 65.6016C114.305 65.6172 114.331 65.6484 114.352 65.6953C114.378 65.737 114.396 65.7917 114.406 65.8594C114.417 65.9271 114.422 66.0104 114.422 66.1094C114.422 66.2969 114.398 66.4323 114.352 66.5156C114.305 66.599 114.242 66.6406 114.164 66.6406H112.359V70.5625C112.359 71.0469 112.43 71.4141 112.57 71.6641C112.716 71.9089 112.974 72.0312 113.344 72.0312C113.464 72.0312 113.57 72.0208 113.664 72C113.758 71.974 113.841 71.9479 113.914 71.9219C113.987 71.8958 114.049 71.8724 114.102 71.8516C114.154 71.8255 114.201 71.8125 114.242 71.8125C114.268 71.8125 114.292 71.8203 114.312 71.8359C114.339 71.8464 114.357 71.8698 114.367 71.9062C114.383 71.9427 114.396 71.9922 114.406 72.0547C114.417 72.1172 114.422 72.1953 114.422 72.2891ZM121.953 68.9844C121.953 69.1875 121.901 69.3333 121.797 69.4219C121.698 69.5052 121.583 69.5469 121.453 69.5469H116.844C116.844 69.9375 116.883 70.2891 116.961 70.6016C117.039 70.9141 117.169 71.1823 117.352 71.4062C117.534 71.6302 117.771 71.8021 118.062 71.9219C118.354 72.0417 118.711 72.1016 119.133 72.1016C119.466 72.1016 119.763 72.0755 120.023 72.0234C120.284 71.9661 120.508 71.9036 120.695 71.8359C120.888 71.7682 121.044 71.7083 121.164 71.6562C121.289 71.599 121.383 71.5703 121.445 71.5703C121.482 71.5703 121.513 71.5807 121.539 71.6016C121.57 71.6172 121.594 71.6432 121.609 71.6797C121.625 71.7161 121.635 71.7682 121.641 71.8359C121.651 71.8984 121.656 71.9766 121.656 72.0703C121.656 72.138 121.654 72.1979 121.648 72.25C121.643 72.2969 121.635 72.3411 121.625 72.3828C121.62 72.4193 121.607 72.4531 121.586 72.4844C121.57 72.5156 121.547 72.5469 121.516 72.5781C121.49 72.6042 121.406 72.651 121.266 72.7188C121.125 72.7812 120.943 72.8438 120.719 72.9062C120.495 72.9688 120.234 73.0234 119.938 73.0703C119.646 73.1224 119.333 73.1484 119 73.1484C118.422 73.1484 117.914 73.0677 117.477 72.9062C117.044 72.7448 116.68 72.5052 116.383 72.1875C116.086 71.8698 115.862 71.4714 115.711 70.9922C115.56 70.513 115.484 69.9557 115.484 69.3203C115.484 68.7161 115.562 68.1745 115.719 67.6953C115.875 67.2109 116.099 66.8021 116.391 66.4688C116.688 66.1302 117.044 65.8724 117.461 65.6953C117.878 65.513 118.344 65.4219 118.859 65.4219C119.411 65.4219 119.88 65.5104 120.266 65.6875C120.656 65.8646 120.977 66.1042 121.227 66.4062C121.477 66.7031 121.659 67.0547 121.773 67.4609C121.893 67.862 121.953 68.2917 121.953 68.75V68.9844ZM120.656 68.6016C120.672 67.9245 120.521 67.3932 120.203 67.0078C119.891 66.6224 119.424 66.4297 118.805 66.4297C118.487 66.4297 118.208 66.4896 117.969 66.6094C117.729 66.7292 117.529 66.888 117.367 67.0859C117.206 67.2839 117.081 67.5156 116.992 67.7812C116.904 68.0417 116.854 68.3151 116.844 68.6016H120.656ZM125.211 72.8047C125.211 72.8464 125.201 72.8828 125.18 72.9141C125.159 72.9401 125.125 72.9635 125.078 72.9844C125.031 73.0052 124.966 73.0208 124.883 73.0312C124.799 73.0417 124.693 73.0469 124.562 73.0469C124.438 73.0469 124.333 73.0417 124.25 73.0312C124.167 73.0208 124.099 73.0052 124.047 72.9844C124 72.9635 123.966 72.9401 123.945 72.9141C123.93 72.8828 123.922 72.8464 123.922 72.8047V62.3672C123.922 62.3255 123.93 62.2891 123.945 62.2578C123.966 62.2266 124 62.2005 124.047 62.1797C124.099 62.1589 124.167 62.1432 124.25 62.1328C124.333 62.1224 124.438 62.1172 124.562 62.1172C124.693 62.1172 124.799 62.1224 124.883 62.1328C124.966 62.1432 125.031 62.1589 125.078 62.1797C125.125 62.2005 125.159 62.2266 125.18 62.2578C125.201 62.2891 125.211 62.3255 125.211 62.3672V72.8047ZM128.883 72.8047C128.883 72.8464 128.872 72.8828 128.852 72.9141C128.831 72.9401 128.797 72.9635 128.75 72.9844C128.703 73.0052 128.638 73.0208 128.555 73.0312C128.471 73.0417 128.365 73.0469 128.234 73.0469C128.109 73.0469 128.005 73.0417 127.922 73.0312C127.839 73.0208 127.771 73.0052 127.719 72.9844C127.672 72.9635 127.638 72.9401 127.617 72.9141C127.602 72.8828 127.594 72.8464 127.594 72.8047V62.3672C127.594 62.3255 127.602 62.2891 127.617 62.2578C127.638 62.2266 127.672 62.2005 127.719 62.1797C127.771 62.1589 127.839 62.1432 127.922 62.1328C128.005 62.1224 128.109 62.1172 128.234 62.1172C128.365 62.1172 128.471 62.1224 128.555 62.1328C128.638 62.1432 128.703 62.1589 128.75 62.1797C128.797 62.2005 128.831 62.2266 128.852 62.2578C128.872 62.2891 128.883 62.3255 128.883 62.3672V72.8047ZM132.555 72.8047C132.555 72.8464 132.544 72.8828 132.523 72.9141C132.503 72.9401 132.469 72.9635 132.422 72.9844C132.375 73.0052 132.31 73.0208 132.227 73.0312C132.143 73.0417 132.036 73.0469 131.906 73.0469C131.781 73.0469 131.677 73.0417 131.594 73.0312C131.51 73.0208 131.443 73.0052 131.391 72.9844C131.344 72.9635 131.31 72.9401 131.289 72.9141C131.273 72.8828 131.266 72.8464 131.266 72.8047V65.7734C131.266 65.737 131.273 65.7031 131.289 65.6719C131.31 65.6406 131.344 65.6146 131.391 65.5938C131.443 65.5729 131.51 65.5573 131.594 65.5469C131.677 65.5365 131.781 65.5312 131.906 65.5312C132.036 65.5312 132.143 65.5365 132.227 65.5469C132.31 65.5573 132.375 65.5729 132.422 65.5938C132.469 65.6146 132.503 65.6406 132.523 65.6719C132.544 65.7031 132.555 65.737 132.555 65.7734V72.8047ZM132.703 63.3984C132.703 63.7005 132.646 63.9062 132.531 64.0156C132.417 64.125 132.206 64.1797 131.898 64.1797C131.596 64.1797 131.388 64.1276 131.273 64.0234C131.164 63.9141 131.109 63.7109 131.109 63.4141C131.109 63.112 131.167 62.9062 131.281 62.7969C131.396 62.6875 131.607 62.6328 131.914 62.6328C132.216 62.6328 132.422 62.6875 132.531 62.7969C132.646 62.901 132.703 63.1016 132.703 63.3984ZM140.812 66.0938C140.812 66.276 140.786 66.4089 140.734 66.4922C140.688 66.5703 140.625 66.6094 140.547 66.6094H139.539C139.721 66.7969 139.849 67.0052 139.922 67.2344C139.995 67.4583 140.031 67.6927 140.031 67.9375C140.031 68.3438 139.966 68.7031 139.836 69.0156C139.706 69.3281 139.518 69.5938 139.273 69.8125C139.034 70.026 138.747 70.1901 138.414 70.3047C138.081 70.4193 137.711 70.4766 137.305 70.4766C137.018 70.4766 136.745 70.4401 136.484 70.3672C136.229 70.2891 136.031 70.1927 135.891 70.0781C135.797 70.1719 135.719 70.2786 135.656 70.3984C135.599 70.5182 135.57 70.6562 135.57 70.8125C135.57 70.9948 135.654 71.1458 135.82 71.2656C135.992 71.3854 136.219 71.4505 136.5 71.4609L138.336 71.5391C138.685 71.5495 139.005 71.599 139.297 71.6875C139.589 71.7708 139.841 71.8932 140.055 72.0547C140.268 72.2109 140.435 72.4062 140.555 72.6406C140.674 72.8698 140.734 73.138 140.734 73.4453C140.734 73.7682 140.667 74.0755 140.531 74.3672C140.396 74.6589 140.188 74.9141 139.906 75.1328C139.63 75.3568 139.276 75.5312 138.844 75.6562C138.411 75.7865 137.901 75.8516 137.312 75.8516C136.745 75.8516 136.26 75.8021 135.859 75.7031C135.464 75.6094 135.138 75.4792 134.883 75.3125C134.628 75.1458 134.443 74.9453 134.328 74.7109C134.214 74.4818 134.156 74.2318 134.156 73.9609C134.156 73.7891 134.177 73.6224 134.219 73.4609C134.26 73.2995 134.323 73.1458 134.406 73C134.495 72.8542 134.602 72.7161 134.727 72.5859C134.857 72.4505 135.005 72.3177 135.172 72.1875C134.917 72.0573 134.727 71.8932 134.602 71.6953C134.482 71.4974 134.422 71.2839 134.422 71.0547C134.422 70.737 134.487 70.4531 134.617 70.2031C134.747 69.9531 134.909 69.7292 135.102 69.5312C134.94 69.3385 134.812 69.1224 134.719 68.8828C134.625 68.638 134.578 68.3438 134.578 68C134.578 67.599 134.646 67.2396 134.781 66.9219C134.917 66.6042 135.104 66.3359 135.344 66.1172C135.583 65.8984 135.87 65.7318 136.203 65.6172C136.542 65.4974 136.909 65.4375 137.305 65.4375C137.518 65.4375 137.716 65.4505 137.898 65.4766C138.086 65.4974 138.26 65.5286 138.422 65.5703H140.547C140.635 65.5703 140.701 65.6146 140.742 65.7031C140.789 65.7865 140.812 65.9167 140.812 66.0938ZM138.797 67.9453C138.797 67.4661 138.664 67.0938 138.398 66.8281C138.138 66.5573 137.766 66.4219 137.281 66.4219C137.031 66.4219 136.812 66.4635 136.625 66.5469C136.443 66.6302 136.289 66.7448 136.164 66.8906C136.044 67.0365 135.953 67.2057 135.891 67.3984C135.833 67.5859 135.805 67.7839 135.805 67.9922C135.805 68.4557 135.935 68.8203 136.195 69.0859C136.461 69.3516 136.831 69.4844 137.305 69.4844C137.56 69.4844 137.781 69.4453 137.969 69.3672C138.156 69.2839 138.31 69.1719 138.43 69.0312C138.555 68.8854 138.646 68.7188 138.703 68.5312C138.766 68.3438 138.797 68.1484 138.797 67.9453ZM139.445 73.5156C139.445 73.2135 139.32 72.9818 139.07 72.8203C138.826 72.6536 138.492 72.5651 138.07 72.5547L136.25 72.4922C136.083 72.6224 135.945 72.7474 135.836 72.8672C135.732 72.9818 135.648 73.0911 135.586 73.1953C135.523 73.3047 135.479 73.4115 135.453 73.5156C135.432 73.6198 135.422 73.7266 135.422 73.8359C135.422 74.1745 135.594 74.4297 135.938 74.6016C136.281 74.7786 136.76 74.8672 137.375 74.8672C137.766 74.8672 138.091 74.8281 138.352 74.75C138.617 74.6771 138.831 74.5781 138.992 74.4531C139.154 74.3281 139.268 74.1849 139.336 74.0234C139.409 73.862 139.445 73.6927 139.445 73.5156ZM148.328 68.9844C148.328 69.1875 148.276 69.3333 148.172 69.4219C148.073 69.5052 147.958 69.5469 147.828 69.5469H143.219C143.219 69.9375 143.258 70.2891 143.336 70.6016C143.414 70.9141 143.544 71.1823 143.727 71.4062C143.909 71.6302 144.146 71.8021 144.438 71.9219C144.729 72.0417 145.086 72.1016 145.508 72.1016C145.841 72.1016 146.138 72.0755 146.398 72.0234C146.659 71.9661 146.883 71.9036 147.07 71.8359C147.263 71.7682 147.419 71.7083 147.539 71.6562C147.664 71.599 147.758 71.5703 147.82 71.5703C147.857 71.5703 147.888 71.5807 147.914 71.6016C147.945 71.6172 147.969 71.6432 147.984 71.6797C148 71.7161 148.01 71.7682 148.016 71.8359C148.026 71.8984 148.031 71.9766 148.031 72.0703C148.031 72.138 148.029 72.1979 148.023 72.25C148.018 72.2969 148.01 72.3411 148 72.3828C147.995 72.4193 147.982 72.4531 147.961 72.4844C147.945 72.5156 147.922 72.5469 147.891 72.5781C147.865 72.6042 147.781 72.651 147.641 72.7188C147.5 72.7812 147.318 72.8438 147.094 72.9062C146.87 72.9688 146.609 73.0234 146.312 73.0703C146.021 73.1224 145.708 73.1484 145.375 73.1484C144.797 73.1484 144.289 73.0677 143.852 72.9062C143.419 72.7448 143.055 72.5052 142.758 72.1875C142.461 71.8698 142.237 71.4714 142.086 70.9922C141.935 70.513 141.859 69.9557 141.859 69.3203C141.859 68.7161 141.938 68.1745 142.094 67.6953C142.25 67.2109 142.474 66.8021 142.766 66.4688C143.062 66.1302 143.419 65.8724 143.836 65.6953C144.253 65.513 144.719 65.4219 145.234 65.4219C145.786 65.4219 146.255 65.5104 146.641 65.6875C147.031 65.8646 147.352 66.1042 147.602 66.4062C147.852 66.7031 148.034 67.0547 148.148 67.4609C148.268 67.862 148.328 68.2917 148.328 68.75V68.9844ZM147.031 68.6016C147.047 67.9245 146.896 67.3932 146.578 67.0078C146.266 66.6224 145.799 66.4297 145.18 66.4297C144.862 66.4297 144.583 66.4896 144.344 66.6094C144.104 66.7292 143.904 66.888 143.742 67.0859C143.581 67.2839 143.456 67.5156 143.367 67.7812C143.279 68.0417 143.229 68.3151 143.219 68.6016H147.031ZM156.352 72.8047C156.352 72.8464 156.341 72.8828 156.32 72.9141C156.299 72.9401 156.266 72.9635 156.219 72.9844C156.172 73.0052 156.107 73.0208 156.023 73.0312C155.94 73.0417 155.836 73.0469 155.711 73.0469C155.581 73.0469 155.474 73.0417 155.391 73.0312C155.307 73.0208 155.242 73.0052 155.195 72.9844C155.148 72.9635 155.115 72.9401 155.094 72.9141C155.073 72.8828 155.062 72.8464 155.062 72.8047V68.6875C155.062 68.2865 155.031 67.9635 154.969 67.7188C154.906 67.474 154.815 67.263 154.695 67.0859C154.576 66.9089 154.419 66.7734 154.227 66.6797C154.039 66.5859 153.82 66.5391 153.57 66.5391C153.247 66.5391 152.924 66.6536 152.602 66.8828C152.279 67.112 151.94 67.4479 151.586 67.8906V72.8047C151.586 72.8464 151.576 72.8828 151.555 72.9141C151.534 72.9401 151.5 72.9635 151.453 72.9844C151.406 73.0052 151.341 73.0208 151.258 73.0312C151.174 73.0417 151.068 73.0469 150.938 73.0469C150.812 73.0469 150.708 73.0417 150.625 73.0312C150.542 73.0208 150.474 73.0052 150.422 72.9844C150.375 72.9635 150.341 72.9401 150.32 72.9141C150.305 72.8828 150.297 72.8464 150.297 72.8047V65.7734C150.297 65.7318 150.305 65.6979 150.32 65.6719C150.336 65.6406 150.367 65.6146 150.414 65.5938C150.461 65.5677 150.521 65.5521 150.594 65.5469C150.667 65.5365 150.763 65.5312 150.883 65.5312C150.997 65.5312 151.091 65.5365 151.164 65.5469C151.242 65.5521 151.302 65.5677 151.344 65.5938C151.385 65.6146 151.414 65.6406 151.43 65.6719C151.451 65.6979 151.461 65.7318 151.461 65.7734V66.7031C151.857 66.2604 152.25 65.9375 152.641 65.7344C153.036 65.526 153.435 65.4219 153.836 65.4219C154.305 65.4219 154.698 65.5026 155.016 65.6641C155.339 65.8203 155.599 66.0312 155.797 66.2969C155.995 66.5625 156.135 66.875 156.219 67.2344C156.307 67.5885 156.352 68.0156 156.352 68.5156V72.8047ZM163.758 71.7344C163.758 71.8229 163.755 71.901 163.75 71.9688C163.745 72.0312 163.734 72.0859 163.719 72.1328C163.708 72.1745 163.693 72.2135 163.672 72.25C163.656 72.2812 163.615 72.3307 163.547 72.3984C163.484 72.4609 163.375 72.5417 163.219 72.6406C163.062 72.7344 162.885 72.8203 162.688 72.8984C162.495 72.9714 162.284 73.0312 162.055 73.0781C161.826 73.125 161.589 73.1484 161.344 73.1484C160.839 73.1484 160.391 73.0651 160 72.8984C159.609 72.7318 159.281 72.4896 159.016 72.1719C158.755 71.849 158.555 71.4557 158.414 70.9922C158.279 70.5234 158.211 69.9844 158.211 69.375C158.211 68.6823 158.294 68.0885 158.461 67.5938C158.633 67.0938 158.865 66.6849 159.156 66.3672C159.453 66.0495 159.799 65.8151 160.195 65.6641C160.596 65.5078 161.029 65.4297 161.492 65.4297C161.716 65.4297 161.932 65.4505 162.141 65.4922C162.354 65.5339 162.549 65.5885 162.727 65.6562C162.904 65.724 163.06 65.8021 163.195 65.8906C163.336 65.9792 163.438 66.0547 163.5 66.1172C163.562 66.1797 163.604 66.2292 163.625 66.2656C163.651 66.3021 163.672 66.3464 163.688 66.3984C163.703 66.4453 163.714 66.5 163.719 66.5625C163.724 66.625 163.727 66.7031 163.727 66.7969C163.727 67 163.703 67.1432 163.656 67.2266C163.609 67.3047 163.552 67.3438 163.484 67.3438C163.406 67.3438 163.315 67.3021 163.211 67.2188C163.112 67.1302 162.984 67.0339 162.828 66.9297C162.672 66.8255 162.482 66.7318 162.258 66.6484C162.039 66.5599 161.779 66.5156 161.477 66.5156C160.857 66.5156 160.38 66.7552 160.047 67.2344C159.719 67.7083 159.555 68.3984 159.555 69.3047C159.555 69.7578 159.596 70.1562 159.68 70.5C159.768 70.8385 159.896 71.1224 160.062 71.3516C160.229 71.5807 160.432 71.7526 160.672 71.8672C160.917 71.9766 161.195 72.0312 161.508 72.0312C161.805 72.0312 162.065 71.9844 162.289 71.8906C162.513 71.7969 162.706 71.6953 162.867 71.5859C163.034 71.4714 163.172 71.3698 163.281 71.2812C163.396 71.1875 163.484 71.1406 163.547 71.1406C163.583 71.1406 163.615 71.151 163.641 71.1719C163.667 71.1927 163.688 71.2292 163.703 71.2812C163.724 71.3281 163.737 71.3906 163.742 71.4688C163.753 71.5417 163.758 71.6302 163.758 71.7344ZM171.469 68.9844C171.469 69.1875 171.417 69.3333 171.312 69.4219C171.214 69.5052 171.099 69.5469 170.969 69.5469H166.359C166.359 69.9375 166.398 70.2891 166.477 70.6016C166.555 70.9141 166.685 71.1823 166.867 71.4062C167.049 71.6302 167.286 71.8021 167.578 71.9219C167.87 72.0417 168.227 72.1016 168.648 72.1016C168.982 72.1016 169.279 72.0755 169.539 72.0234C169.799 71.9661 170.023 71.9036 170.211 71.8359C170.404 71.7682 170.56 71.7083 170.68 71.6562C170.805 71.599 170.898 71.5703 170.961 71.5703C170.997 71.5703 171.029 71.5807 171.055 71.6016C171.086 71.6172 171.109 71.6432 171.125 71.6797C171.141 71.7161 171.151 71.7682 171.156 71.8359C171.167 71.8984 171.172 71.9766 171.172 72.0703C171.172 72.138 171.169 72.1979 171.164 72.25C171.159 72.2969 171.151 72.3411 171.141 72.3828C171.135 72.4193 171.122 72.4531 171.102 72.4844C171.086 72.5156 171.062 72.5469 171.031 72.5781C171.005 72.6042 170.922 72.651 170.781 72.7188C170.641 72.7812 170.458 72.8438 170.234 72.9062C170.01 72.9688 169.75 73.0234 169.453 73.0703C169.161 73.1224 168.849 73.1484 168.516 73.1484C167.938 73.1484 167.43 73.0677 166.992 72.9062C166.56 72.7448 166.195 72.5052 165.898 72.1875C165.602 71.8698 165.378 71.4714 165.227 70.9922C165.076 70.513 165 69.9557 165 69.3203C165 68.7161 165.078 68.1745 165.234 67.6953C165.391 67.2109 165.615 66.8021 165.906 66.4688C166.203 66.1302 166.56 65.8724 166.977 65.6953C167.393 65.513 167.859 65.4219 168.375 65.4219C168.927 65.4219 169.396 65.5104 169.781 65.6875C170.172 65.8646 170.492 66.1042 170.742 66.4062C170.992 66.7031 171.174 67.0547 171.289 67.4609C171.409 67.862 171.469 68.2917 171.469 68.75V68.9844ZM170.172 68.6016C170.188 67.9245 170.036 67.3932 169.719 67.0078C169.406 66.6224 168.94 66.4297 168.32 66.4297C168.003 66.4297 167.724 66.4896 167.484 66.6094C167.245 66.7292 167.044 66.888 166.883 67.0859C166.721 67.2839 166.596 67.5156 166.508 67.7812C166.419 68.0417 166.37 68.3151 166.359 68.6016H170.172ZM184.781 72.5234C184.823 72.638 184.844 72.7318 184.844 72.8047C184.849 72.8724 184.831 72.9245 184.789 72.9609C184.747 72.9974 184.677 73.0208 184.578 73.0312C184.484 73.0417 184.357 73.0469 184.195 73.0469C184.034 73.0469 183.904 73.0417 183.805 73.0312C183.711 73.026 183.638 73.0156 183.586 73C183.539 72.9792 183.503 72.9531 183.477 72.9219C183.456 72.8906 183.435 72.8516 183.414 72.8047L182.547 70.3438H178.344L177.516 72.7734C177.5 72.8203 177.479 72.862 177.453 72.8984C177.427 72.9297 177.388 72.9583 177.336 72.9844C177.289 73.0052 177.219 73.0208 177.125 73.0312C177.036 73.0417 176.919 73.0469 176.773 73.0469C176.622 73.0469 176.497 73.0391 176.398 73.0234C176.305 73.013 176.237 72.9896 176.195 72.9531C176.159 72.9167 176.141 72.8646 176.141 72.7969C176.146 72.724 176.169 72.6302 176.211 72.5156L179.602 63.125C179.622 63.0677 179.648 63.0208 179.68 62.9844C179.716 62.9479 179.766 62.9193 179.828 62.8984C179.896 62.8776 179.979 62.8646 180.078 62.8594C180.182 62.849 180.312 62.8438 180.469 62.8438C180.635 62.8438 180.773 62.849 180.883 62.8594C180.992 62.8646 181.081 62.8776 181.148 62.8984C181.216 62.9193 181.268 62.9505 181.305 62.9922C181.341 63.0286 181.37 63.0755 181.391 63.1328L184.781 72.5234ZM180.43 64.2344H180.422L178.68 69.2734H182.195L180.43 64.2344ZM192.797 69.1797C192.797 69.7943 192.729 70.3464 192.594 70.8359C192.464 71.3255 192.268 71.7422 192.008 72.0859C191.753 72.4245 191.435 72.6875 191.055 72.875C190.674 73.0573 190.24 73.1484 189.75 73.1484C189.542 73.1484 189.349 73.1276 189.172 73.0859C188.995 73.0443 188.82 72.9792 188.648 72.8906C188.482 72.8021 188.315 72.6901 188.148 72.5547C187.982 72.4193 187.805 72.2604 187.617 72.0781V75.5938C187.617 75.6354 187.607 75.6719 187.586 75.7031C187.565 75.7344 187.531 75.7604 187.484 75.7812C187.438 75.8021 187.372 75.8177 187.289 75.8281C187.206 75.8385 187.099 75.8438 186.969 75.8438C186.844 75.8438 186.74 75.8385 186.656 75.8281C186.573 75.8177 186.505 75.8021 186.453 75.7812C186.406 75.7604 186.372 75.7344 186.352 75.7031C186.336 75.6719 186.328 75.6354 186.328 75.5938V65.7734C186.328 65.7266 186.336 65.6901 186.352 65.6641C186.367 65.6328 186.398 65.6068 186.445 65.5859C186.492 65.5651 186.552 65.5521 186.625 65.5469C186.698 65.5365 186.786 65.5312 186.891 65.5312C187 65.5312 187.089 65.5365 187.156 65.5469C187.229 65.5521 187.289 65.5651 187.336 65.5859C187.383 65.6068 187.414 65.6328 187.43 65.6641C187.451 65.6901 187.461 65.7266 187.461 65.7734V66.7188C187.674 66.5 187.88 66.3099 188.078 66.1484C188.276 65.987 188.474 65.8542 188.672 65.75C188.875 65.6406 189.081 65.5599 189.289 65.5078C189.503 65.4505 189.727 65.4219 189.961 65.4219C190.471 65.4219 190.906 65.5208 191.266 65.7188C191.625 65.9167 191.917 66.1875 192.141 66.5312C192.37 66.875 192.536 67.276 192.641 67.7344C192.745 68.1875 192.797 68.6693 192.797 69.1797ZM191.438 69.3281C191.438 68.9688 191.409 68.6224 191.352 68.2891C191.299 67.9505 191.206 67.651 191.07 67.3906C190.94 67.1302 190.763 66.9219 190.539 66.7656C190.315 66.6094 190.036 66.5312 189.703 66.5312C189.536 66.5312 189.372 66.5573 189.211 66.6094C189.049 66.6562 188.885 66.7344 188.719 66.8438C188.552 66.9479 188.378 67.0885 188.195 67.2656C188.013 67.4375 187.82 67.651 187.617 67.9062V70.7031C187.971 71.1354 188.307 71.4661 188.625 71.6953C188.943 71.9245 189.276 72.0391 189.625 72.0391C189.948 72.0391 190.224 71.9609 190.453 71.8047C190.688 71.6484 190.875 71.4401 191.016 71.1797C191.161 70.9193 191.268 70.6276 191.336 70.3047C191.404 69.9818 191.438 69.6562 191.438 69.3281ZM201.203 69.1797C201.203 69.7943 201.135 70.3464 201 70.8359C200.87 71.3255 200.674 71.7422 200.414 72.0859C200.159 72.4245 199.841 72.6875 199.461 72.875C199.081 73.0573 198.646 73.1484 198.156 73.1484C197.948 73.1484 197.755 73.1276 197.578 73.0859C197.401 73.0443 197.227 72.9792 197.055 72.8906C196.888 72.8021 196.721 72.6901 196.555 72.5547C196.388 72.4193 196.211 72.2604 196.023 72.0781V75.5938C196.023 75.6354 196.013 75.6719 195.992 75.7031C195.971 75.7344 195.938 75.7604 195.891 75.7812C195.844 75.8021 195.779 75.8177 195.695 75.8281C195.612 75.8385 195.505 75.8438 195.375 75.8438C195.25 75.8438 195.146 75.8385 195.062 75.8281C194.979 75.8177 194.911 75.8021 194.859 75.7812C194.812 75.7604 194.779 75.7344 194.758 75.7031C194.742 75.6719 194.734 75.6354 194.734 75.5938V65.7734C194.734 65.7266 194.742 65.6901 194.758 65.6641C194.773 65.6328 194.805 65.6068 194.852 65.5859C194.898 65.5651 194.958 65.5521 195.031 65.5469C195.104 65.5365 195.193 65.5312 195.297 65.5312C195.406 65.5312 195.495 65.5365 195.562 65.5469C195.635 65.5521 195.695 65.5651 195.742 65.5859C195.789 65.6068 195.82 65.6328 195.836 65.6641C195.857 65.6901 195.867 65.7266 195.867 65.7734V66.7188C196.081 66.5 196.286 66.3099 196.484 66.1484C196.682 65.987 196.88 65.8542 197.078 65.75C197.281 65.6406 197.487 65.5599 197.695 65.5078C197.909 65.4505 198.133 65.4219 198.367 65.4219C198.878 65.4219 199.312 65.5208 199.672 65.7188C200.031 65.9167 200.323 66.1875 200.547 66.5312C200.776 66.875 200.943 67.276 201.047 67.7344C201.151 68.1875 201.203 68.6693 201.203 69.1797ZM199.844 69.3281C199.844 68.9688 199.815 68.6224 199.758 68.2891C199.706 67.9505 199.612 67.651 199.477 67.3906C199.346 67.1302 199.169 66.9219 198.945 66.7656C198.721 66.6094 198.443 66.5312 198.109 66.5312C197.943 66.5312 197.779 66.5573 197.617 66.6094C197.456 66.6562 197.292 66.7344 197.125 66.8438C196.958 66.9479 196.784 67.0885 196.602 67.2656C196.419 67.4375 196.227 67.651 196.023 67.9062V70.7031C196.378 71.1354 196.714 71.4661 197.031 71.6953C197.349 71.9245 197.682 72.0391 198.031 72.0391C198.354 72.0391 198.63 71.9609 198.859 71.8047C199.094 71.6484 199.281 71.4401 199.422 71.1797C199.568 70.9193 199.674 70.6276 199.742 70.3047C199.81 69.9818 199.844 69.6562 199.844 69.3281ZM204.43 72.8047C204.43 72.8464 204.419 72.8828 204.398 72.9141C204.378 72.9401 204.344 72.9635 204.297 72.9844C204.25 73.0052 204.185 73.0208 204.102 73.0312C204.018 73.0417 203.911 73.0469 203.781 73.0469C203.656 73.0469 203.552 73.0417 203.469 73.0312C203.385 73.0208 203.318 73.0052 203.266 72.9844C203.219 72.9635 203.185 72.9401 203.164 72.9141C203.148 72.8828 203.141 72.8464 203.141 72.8047V62.3672C203.141 62.3255 203.148 62.2891 203.164 62.2578C203.185 62.2266 203.219 62.2005 203.266 62.1797C203.318 62.1589 203.385 62.1432 203.469 62.1328C203.552 62.1224 203.656 62.1172 203.781 62.1172C203.911 62.1172 204.018 62.1224 204.102 62.1328C204.185 62.1432 204.25 62.1589 204.297 62.1797C204.344 62.2005 204.378 62.2266 204.398 62.2578C204.419 62.2891 204.43 62.3255 204.43 62.3672V72.8047ZM208.102 72.8047C208.102 72.8464 208.091 72.8828 208.07 72.9141C208.049 72.9401 208.016 72.9635 207.969 72.9844C207.922 73.0052 207.857 73.0208 207.773 73.0312C207.69 73.0417 207.583 73.0469 207.453 73.0469C207.328 73.0469 207.224 73.0417 207.141 73.0312C207.057 73.0208 206.99 73.0052 206.938 72.9844C206.891 72.9635 206.857 72.9401 206.836 72.9141C206.82 72.8828 206.812 72.8464 206.812 72.8047V65.7734C206.812 65.737 206.82 65.7031 206.836 65.6719C206.857 65.6406 206.891 65.6146 206.938 65.5938C206.99 65.5729 207.057 65.5573 207.141 65.5469C207.224 65.5365 207.328 65.5312 207.453 65.5312C207.583 65.5312 207.69 65.5365 207.773 65.5469C207.857 65.5573 207.922 65.5729 207.969 65.5938C208.016 65.6146 208.049 65.6406 208.07 65.6719C208.091 65.7031 208.102 65.737 208.102 65.7734V72.8047ZM208.25 63.3984C208.25 63.7005 208.193 63.9062 208.078 64.0156C207.964 64.125 207.753 64.1797 207.445 64.1797C207.143 64.1797 206.935 64.1276 206.82 64.0234C206.711 63.9141 206.656 63.7109 206.656 63.4141C206.656 63.112 206.714 62.9062 206.828 62.7969C206.943 62.6875 207.154 62.6328 207.461 62.6328C207.763 62.6328 207.969 62.6875 208.078 62.7969C208.193 62.901 208.25 63.1016 208.25 63.3984ZM215.539 71.7344C215.539 71.8229 215.536 71.901 215.531 71.9688C215.526 72.0312 215.516 72.0859 215.5 72.1328C215.49 72.1745 215.474 72.2135 215.453 72.25C215.438 72.2812 215.396 72.3307 215.328 72.3984C215.266 72.4609 215.156 72.5417 215 72.6406C214.844 72.7344 214.667 72.8203 214.469 72.8984C214.276 72.9714 214.065 73.0312 213.836 73.0781C213.607 73.125 213.37 73.1484 213.125 73.1484C212.62 73.1484 212.172 73.0651 211.781 72.8984C211.391 72.7318 211.062 72.4896 210.797 72.1719C210.536 71.849 210.336 71.4557 210.195 70.9922C210.06 70.5234 209.992 69.9844 209.992 69.375C209.992 68.6823 210.076 68.0885 210.242 67.5938C210.414 67.0938 210.646 66.6849 210.938 66.3672C211.234 66.0495 211.581 65.8151 211.977 65.6641C212.378 65.5078 212.81 65.4297 213.273 65.4297C213.497 65.4297 213.714 65.4505 213.922 65.4922C214.135 65.5339 214.331 65.5885 214.508 65.6562C214.685 65.724 214.841 65.8021 214.977 65.8906C215.117 65.9792 215.219 66.0547 215.281 66.1172C215.344 66.1797 215.385 66.2292 215.406 66.2656C215.432 66.3021 215.453 66.3464 215.469 66.3984C215.484 66.4453 215.495 66.5 215.5 66.5625C215.505 66.625 215.508 66.7031 215.508 66.7969C215.508 67 215.484 67.1432 215.438 67.2266C215.391 67.3047 215.333 67.3438 215.266 67.3438C215.188 67.3438 215.096 67.3021 214.992 67.2188C214.893 67.1302 214.766 67.0339 214.609 66.9297C214.453 66.8255 214.263 66.7318 214.039 66.6484C213.82 66.5599 213.56 66.5156 213.258 66.5156C212.638 66.5156 212.161 66.7552 211.828 67.2344C211.5 67.7083 211.336 68.3984 211.336 69.3047C211.336 69.7578 211.378 70.1562 211.461 70.5C211.549 70.8385 211.677 71.1224 211.844 71.3516C212.01 71.5807 212.214 71.7526 212.453 71.8672C212.698 71.9766 212.977 72.0312 213.289 72.0312C213.586 72.0312 213.846 71.9844 214.07 71.8906C214.294 71.7969 214.487 71.6953 214.648 71.5859C214.815 71.4714 214.953 71.3698 215.062 71.2812C215.177 71.1875 215.266 71.1406 215.328 71.1406C215.365 71.1406 215.396 71.151 215.422 71.1719C215.448 71.1927 215.469 71.2292 215.484 71.2812C215.505 71.3281 215.518 71.3906 215.523 71.4688C215.534 71.5417 215.539 71.6302 215.539 71.7344ZM222.406 72.8125C222.406 72.875 222.385 72.9219 222.344 72.9531C222.302 72.9844 222.245 73.0078 222.172 73.0234C222.099 73.0391 221.992 73.0469 221.852 73.0469C221.716 73.0469 221.607 73.0391 221.523 73.0234C221.445 73.0078 221.388 72.9844 221.352 72.9531C221.315 72.9219 221.297 72.875 221.297 72.8125V72.1094C220.99 72.4375 220.646 72.6927 220.266 72.875C219.891 73.0573 219.492 73.1484 219.07 73.1484C218.701 73.1484 218.365 73.099 218.062 73C217.766 72.9062 217.51 72.7682 217.297 72.5859C217.089 72.4036 216.924 72.1797 216.805 71.9141C216.69 71.6484 216.633 71.3464 216.633 71.0078C216.633 70.612 216.714 70.2682 216.875 69.9766C217.036 69.6849 217.268 69.4427 217.57 69.25C217.872 69.0573 218.242 68.9141 218.68 68.8203C219.117 68.7214 219.609 68.6719 220.156 68.6719H221.125V68.125C221.125 67.8542 221.096 67.6146 221.039 67.4062C220.982 67.1979 220.888 67.026 220.758 66.8906C220.633 66.75 220.469 66.6458 220.266 66.5781C220.062 66.5052 219.812 66.4688 219.516 66.4688C219.198 66.4688 218.911 66.5078 218.656 66.5859C218.406 66.6589 218.185 66.7422 217.992 66.8359C217.805 66.9245 217.646 67.0078 217.516 67.0859C217.391 67.1589 217.297 67.1953 217.234 67.1953C217.193 67.1953 217.156 67.1849 217.125 67.1641C217.094 67.1432 217.065 67.112 217.039 67.0703C217.018 67.0286 217.003 66.9766 216.992 66.9141C216.982 66.8464 216.977 66.7734 216.977 66.6953C216.977 66.5651 216.984 66.4635 217 66.3906C217.021 66.3125 217.065 66.2396 217.133 66.1719C217.206 66.1042 217.328 66.026 217.5 65.9375C217.672 65.8438 217.87 65.7604 218.094 65.6875C218.318 65.6094 218.562 65.5469 218.828 65.5C219.094 65.4479 219.362 65.4219 219.633 65.4219C220.138 65.4219 220.568 65.4792 220.922 65.5938C221.276 65.7083 221.562 65.8776 221.781 66.1016C222 66.3203 222.159 66.5938 222.258 66.9219C222.357 67.25 222.406 67.6328 222.406 68.0703V72.8125ZM221.125 69.6016H220.023C219.669 69.6016 219.362 69.6328 219.102 69.6953C218.841 69.7526 218.625 69.8411 218.453 69.9609C218.281 70.0755 218.154 70.2161 218.07 70.3828C217.992 70.5443 217.953 70.7318 217.953 70.9453C217.953 71.3099 218.068 71.6016 218.297 71.8203C218.531 72.0339 218.857 72.1406 219.273 72.1406C219.612 72.1406 219.924 72.0547 220.211 71.8828C220.503 71.7109 220.807 71.4479 221.125 71.0938V69.6016ZM230.742 65.5703C230.898 65.5703 231.005 65.6068 231.062 65.6797C231.12 65.7474 231.148 65.849 231.148 65.9844V72.8047C231.148 72.8464 231.138 72.8828 231.117 72.9141C231.096 72.9401 231.06 72.9635 231.008 72.9844C230.961 73.0052 230.896 73.0208 230.812 73.0312C230.729 73.0417 230.628 73.0469 230.508 73.0469C230.378 73.0469 230.271 73.0417 230.188 73.0312C230.104 73.0208 230.036 73.0052 229.984 72.9844C229.938 72.9635 229.904 72.9401 229.883 72.9141C229.862 72.8828 229.852 72.8464 229.852 72.8047V66.6406H226.219V70.5625C226.219 71.0469 226.289 71.4141 226.43 71.6641C226.576 71.9089 226.833 72.0312 227.203 72.0312C227.323 72.0312 227.43 72.0208 227.523 72C227.617 71.974 227.701 71.9479 227.773 71.9219C227.846 71.8958 227.909 71.8724 227.961 71.8516C228.013 71.8255 228.06 71.8125 228.102 71.8125C228.128 71.8125 228.151 71.8203 228.172 71.8359C228.198 71.8464 228.216 71.8698 228.227 71.9062C228.242 71.9427 228.255 71.9922 228.266 72.0547C228.276 72.1172 228.281 72.1953 228.281 72.2891C228.281 72.4401 228.271 72.5599 228.25 72.6484C228.229 72.7318 228.198 72.7969 228.156 72.8438C228.115 72.8854 228.052 72.9245 227.969 72.9609C227.885 72.9974 227.789 73.026 227.68 73.0469C227.576 73.0729 227.464 73.0938 227.344 73.1094C227.224 73.125 227.104 73.1328 226.984 73.1328C226.62 73.1328 226.307 73.0859 226.047 72.9922C225.786 72.8932 225.573 72.7474 225.406 72.5547C225.24 72.3568 225.117 72.1094 225.039 71.8125C224.966 71.5104 224.93 71.1562 224.93 70.75V66.6406H223.945C223.867 66.6406 223.805 66.599 223.758 66.5156C223.711 66.4323 223.688 66.2969 223.688 66.1094C223.688 66.0104 223.693 65.9271 223.703 65.8594C223.719 65.7917 223.737 65.737 223.758 65.6953C223.779 65.6484 223.805 65.6172 223.836 65.6016C223.872 65.5807 223.911 65.5703 223.953 65.5703H224.93V63.8984C224.93 63.862 224.938 63.8281 224.953 63.7969C224.974 63.7656 225.008 63.7396 225.055 63.7188C225.107 63.6927 225.174 63.6745 225.258 63.6641C225.341 63.6536 225.445 63.6484 225.57 63.6484C225.701 63.6484 225.807 63.6536 225.891 63.6641C225.974 63.6745 226.039 63.6927 226.086 63.7188C226.133 63.7396 226.167 63.7656 226.188 63.7969C226.208 63.8281 226.219 63.862 226.219 63.8984V65.5703H230.742ZM231.297 63.3984C231.297 63.7005 231.24 63.9062 231.125 64.0156C231.01 64.125 230.799 64.1797 230.492 64.1797C230.19 64.1797 229.982 64.1276 229.867 64.0234C229.758 63.9141 229.703 63.7109 229.703 63.4141C229.703 63.112 229.76 62.9062 229.875 62.7969C229.99 62.6875 230.201 62.6328 230.508 62.6328C230.81 62.6328 231.016 62.6875 231.125 62.7969C231.24 62.901 231.297 63.1016 231.297 63.3984ZM240.086 69.2109C240.086 69.7839 240.01 70.3125 239.859 70.7969C239.708 71.276 239.482 71.6901 239.18 72.0391C238.883 72.388 238.508 72.6615 238.055 72.8594C237.607 73.0521 237.086 73.1484 236.492 73.1484C235.914 73.1484 235.409 73.0625 234.977 72.8906C234.549 72.7188 234.193 72.4688 233.906 72.1406C233.62 71.8125 233.406 71.4141 233.266 70.9453C233.125 70.4766 233.055 69.9453 233.055 69.3516C233.055 68.7786 233.128 68.2526 233.273 67.7734C233.424 67.2891 233.648 66.8724 233.945 66.5234C234.247 66.1745 234.622 65.9036 235.07 65.7109C235.518 65.5182 236.042 65.4219 236.641 65.4219C237.219 65.4219 237.721 65.5078 238.148 65.6797C238.581 65.8516 238.94 66.1016 239.227 66.4297C239.513 66.7578 239.727 67.1562 239.867 67.625C240.013 68.0938 240.086 68.6224 240.086 69.2109ZM238.727 69.2969C238.727 68.9167 238.69 68.5573 238.617 68.2188C238.549 67.8802 238.435 67.5833 238.273 67.3281C238.112 67.0729 237.893 66.8724 237.617 66.7266C237.341 66.5755 236.997 66.5 236.586 66.5C236.206 66.5 235.878 66.5677 235.602 66.7031C235.331 66.8385 235.107 67.0312 234.93 67.2812C234.753 67.526 234.62 67.8177 234.531 68.1562C234.448 68.4948 234.406 68.8646 234.406 69.2656C234.406 69.651 234.44 70.013 234.508 70.3516C234.581 70.6901 234.698 70.987 234.859 71.2422C235.026 71.4922 235.247 71.6927 235.523 71.8438C235.799 71.9896 236.143 72.0625 236.555 72.0625C236.93 72.0625 237.255 71.9948 237.531 71.8594C237.807 71.724 238.034 71.5339 238.211 71.2891C238.388 71.0443 238.518 70.7526 238.602 70.4141C238.685 70.0755 238.727 69.7031 238.727 69.2969ZM248.039 72.8047C248.039 72.8464 248.029 72.8828 248.008 72.9141C247.987 72.9401 247.953 72.9635 247.906 72.9844C247.859 73.0052 247.794 73.0208 247.711 73.0312C247.628 73.0417 247.523 73.0469 247.398 73.0469C247.268 73.0469 247.161 73.0417 247.078 73.0312C246.995 73.0208 246.93 73.0052 246.883 72.9844C246.836 72.9635 246.802 72.9401 246.781 72.9141C246.76 72.8828 246.75 72.8464 246.75 72.8047V68.6875C246.75 68.2865 246.719 67.9635 246.656 67.7188C246.594 67.474 246.503 67.263 246.383 67.0859C246.263 66.9089 246.107 66.7734 245.914 66.6797C245.727 66.5859 245.508 66.5391 245.258 66.5391C244.935 66.5391 244.612 66.6536 244.289 66.8828C243.966 67.112 243.628 67.4479 243.273 67.8906V72.8047C243.273 72.8464 243.263 72.8828 243.242 72.9141C243.221 72.9401 243.188 72.9635 243.141 72.9844C243.094 73.0052 243.029 73.0208 242.945 73.0312C242.862 73.0417 242.755 73.0469 242.625 73.0469C242.5 73.0469 242.396 73.0417 242.312 73.0312C242.229 73.0208 242.161 73.0052 242.109 72.9844C242.062 72.9635 242.029 72.9401 242.008 72.9141C241.992 72.8828 241.984 72.8464 241.984 72.8047V65.7734C241.984 65.7318 241.992 65.6979 242.008 65.6719C242.023 65.6406 242.055 65.6146 242.102 65.5938C242.148 65.5677 242.208 65.5521 242.281 65.5469C242.354 65.5365 242.451 65.5312 242.57 65.5312C242.685 65.5312 242.779 65.5365 242.852 65.5469C242.93 65.5521 242.99 65.5677 243.031 65.5938C243.073 65.6146 243.102 65.6406 243.117 65.6719C243.138 65.6979 243.148 65.7318 243.148 65.7734V66.7031C243.544 66.2604 243.938 65.9375 244.328 65.7344C244.724 65.526 245.122 65.4219 245.523 65.4219C245.992 65.4219 246.385 65.5026 246.703 65.6641C247.026 65.8203 247.286 66.0312 247.484 66.2969C247.682 66.5625 247.823 66.875 247.906 67.2344C247.995 67.5885 248.039 68.0156 248.039 68.5156V72.8047ZM259.594 70.1641C259.594 70.638 259.505 71.0599 259.328 71.4297C259.156 71.7995 258.914 72.1146 258.602 72.375C258.294 72.6302 257.93 72.8229 257.508 72.9531C257.091 73.0833 256.641 73.1484 256.156 73.1484C255.818 73.1484 255.503 73.1198 255.211 73.0625C254.924 73.0052 254.667 72.9349 254.438 72.8516C254.214 72.7682 254.023 72.6823 253.867 72.5938C253.716 72.5052 253.609 72.4297 253.547 72.3672C253.49 72.3047 253.445 72.2266 253.414 72.1328C253.388 72.0339 253.375 71.9036 253.375 71.7422C253.375 71.6276 253.38 71.5339 253.391 71.4609C253.401 71.3828 253.417 71.3203 253.438 71.2734C253.458 71.2266 253.484 71.1953 253.516 71.1797C253.547 71.1589 253.583 71.1484 253.625 71.1484C253.698 71.1484 253.799 71.1927 253.93 71.2812C254.065 71.3698 254.237 71.4661 254.445 71.5703C254.654 71.6745 254.904 71.7734 255.195 71.8672C255.492 71.9557 255.833 72 256.219 72C256.51 72 256.776 71.9609 257.016 71.8828C257.26 71.8047 257.469 71.6953 257.641 71.5547C257.818 71.4089 257.953 71.2318 258.047 71.0234C258.141 70.8151 258.188 70.5781 258.188 70.3125C258.188 70.026 258.122 69.7812 257.992 69.5781C257.862 69.375 257.69 69.1979 257.477 69.0469C257.263 68.8906 257.018 68.75 256.742 68.625C256.471 68.4948 256.193 68.3646 255.906 68.2344C255.62 68.099 255.341 67.9505 255.07 67.7891C254.799 67.6276 254.557 67.4375 254.344 67.2188C254.13 67 253.956 66.7448 253.82 66.4531C253.69 66.1562 253.625 65.8021 253.625 65.3906C253.625 64.9688 253.701 64.5938 253.852 64.2656C254.008 63.9323 254.221 63.6536 254.492 63.4297C254.768 63.2057 255.094 63.0365 255.469 62.9219C255.849 62.8021 256.258 62.7422 256.695 62.7422C256.919 62.7422 257.143 62.763 257.367 62.8047C257.596 62.8411 257.81 62.8932 258.008 62.9609C258.211 63.0234 258.391 63.0964 258.547 63.1797C258.703 63.2578 258.805 63.3229 258.852 63.375C258.904 63.4219 258.938 63.4609 258.953 63.4922C258.969 63.5182 258.982 63.5547 258.992 63.6016C259.003 63.6432 259.01 63.6953 259.016 63.7578C259.021 63.8203 259.023 63.901 259.023 64C259.023 64.0938 259.018 64.1771 259.008 64.25C259.003 64.3229 258.992 64.3854 258.977 64.4375C258.961 64.4844 258.938 64.5208 258.906 64.5469C258.88 64.5677 258.849 64.5781 258.812 64.5781C258.755 64.5781 258.664 64.5417 258.539 64.4688C258.419 64.3958 258.271 64.3151 258.094 64.2266C257.917 64.1328 257.706 64.0495 257.461 63.9766C257.221 63.8984 256.951 63.8594 256.648 63.8594C256.367 63.8594 256.122 63.8984 255.914 63.9766C255.706 64.0495 255.534 64.1484 255.398 64.2734C255.263 64.3984 255.161 64.5469 255.094 64.7188C255.026 64.8906 254.992 65.0729 254.992 65.2656C254.992 65.5469 255.057 65.7891 255.188 65.9922C255.318 66.1953 255.49 66.375 255.703 66.5312C255.922 66.6875 256.169 66.8307 256.445 66.9609C256.721 67.0911 257.003 67.224 257.289 67.3594C257.576 67.4896 257.857 67.6354 258.133 67.7969C258.409 67.9531 258.654 68.1406 258.867 68.3594C259.086 68.5729 259.26 68.8281 259.391 69.125C259.526 69.4167 259.594 69.763 259.594 70.1641ZM264.375 73L263.438 75.5859C263.406 75.6693 263.326 75.7318 263.195 75.7734C263.07 75.8203 262.878 75.8438 262.617 75.8438C262.482 75.8438 262.372 75.8359 262.289 75.8203C262.206 75.8099 262.141 75.7891 262.094 75.7578C262.052 75.7266 262.029 75.6849 262.023 75.6328C262.018 75.5807 262.031 75.5182 262.062 75.4453L263.031 73C262.984 72.9792 262.94 72.9453 262.898 72.8984C262.857 72.8516 262.828 72.8021 262.812 72.75L260.305 66.0312C260.263 65.9219 260.242 65.8359 260.242 65.7734C260.242 65.7109 260.263 65.6615 260.305 65.625C260.346 65.5885 260.414 65.5651 260.508 65.5547C260.602 65.5391 260.727 65.5312 260.883 65.5312C261.039 65.5312 261.161 65.5365 261.25 65.5469C261.339 65.5521 261.409 65.5651 261.461 65.5859C261.513 65.6068 261.549 65.638 261.57 65.6797C261.596 65.7161 261.622 65.7682 261.648 65.8359L263.656 71.4766H263.68L265.617 65.8047C265.648 65.7057 265.685 65.6432 265.727 65.6172C265.773 65.5859 265.841 65.5651 265.93 65.5547C266.018 65.5391 266.146 65.5312 266.312 65.5312C266.458 65.5312 266.578 65.5391 266.672 65.5547C266.766 65.5651 266.833 65.5885 266.875 65.625C266.922 65.6615 266.945 65.7109 266.945 65.7734C266.945 65.8359 266.93 65.9141 266.898 66.0078L264.375 73ZM272.68 70.8906C272.68 71.25 272.612 71.5703 272.477 71.8516C272.346 72.1328 272.159 72.3698 271.914 72.5625C271.669 72.7552 271.378 72.901 271.039 73C270.701 73.099 270.328 73.1484 269.922 73.1484C269.672 73.1484 269.432 73.1276 269.203 73.0859C268.979 73.0495 268.776 73.0026 268.594 72.9453C268.417 72.8828 268.266 72.8203 268.141 72.7578C268.016 72.6901 267.924 72.6302 267.867 72.5781C267.81 72.526 267.768 72.4531 267.742 72.3594C267.716 72.2656 267.703 72.138 267.703 71.9766C267.703 71.8776 267.708 71.7943 267.719 71.7266C267.729 71.6589 267.742 71.6042 267.758 71.5625C267.773 71.5208 267.794 71.4922 267.82 71.4766C267.852 71.4557 267.885 71.4453 267.922 71.4453C267.979 71.4453 268.062 71.4818 268.172 71.5547C268.286 71.6224 268.424 71.6979 268.586 71.7812C268.753 71.8646 268.948 71.9427 269.172 72.0156C269.396 72.0833 269.654 72.1172 269.945 72.1172C270.164 72.1172 270.362 72.0938 270.539 72.0469C270.716 72 270.87 71.9323 271 71.8438C271.13 71.75 271.229 71.6328 271.297 71.4922C271.37 71.3516 271.406 71.1849 271.406 70.9922C271.406 70.7943 271.354 70.6276 271.25 70.4922C271.151 70.3568 271.018 70.237 270.852 70.1328C270.685 70.0286 270.497 69.9375 270.289 69.8594C270.081 69.776 269.865 69.6901 269.641 69.6016C269.422 69.513 269.206 69.4141 268.992 69.3047C268.784 69.1901 268.596 69.0521 268.43 68.8906C268.263 68.7292 268.128 68.5365 268.023 68.3125C267.924 68.0885 267.875 67.8203 267.875 67.5078C267.875 67.2318 267.927 66.9688 268.031 66.7188C268.141 66.4635 268.302 66.2422 268.516 66.0547C268.729 65.862 268.995 65.7083 269.312 65.5938C269.635 65.4792 270.01 65.4219 270.438 65.4219C270.625 65.4219 270.812 65.4375 271 65.4688C271.188 65.5 271.357 65.5391 271.508 65.5859C271.659 65.6328 271.786 65.6849 271.891 65.7422C272 65.7943 272.081 65.8411 272.133 65.8828C272.19 65.9245 272.227 65.9609 272.242 65.9922C272.263 66.0234 272.276 66.0599 272.281 66.1016C272.292 66.138 272.299 66.1849 272.305 66.2422C272.315 66.2995 272.32 66.3698 272.32 66.4531C272.32 66.5417 272.315 66.6198 272.305 66.6875C272.299 66.75 272.286 66.8021 272.266 66.8438C272.25 66.8854 272.229 66.9167 272.203 66.9375C272.177 66.9531 272.148 66.9609 272.117 66.9609C272.07 66.9609 272.003 66.9323 271.914 66.875C271.826 66.8177 271.711 66.7578 271.57 66.6953C271.43 66.6276 271.263 66.5651 271.07 66.5078C270.883 66.4505 270.667 66.4219 270.422 66.4219C270.203 66.4219 270.01 66.4479 269.844 66.5C269.677 66.5469 269.539 66.6172 269.43 66.7109C269.326 66.7995 269.245 66.9062 269.188 67.0312C269.135 67.1562 269.109 67.2917 269.109 67.4375C269.109 67.6406 269.161 67.8125 269.266 67.9531C269.37 68.0885 269.505 68.2083 269.672 68.3125C269.839 68.4167 270.029 68.5104 270.242 68.5938C270.456 68.6771 270.672 68.763 270.891 68.8516C271.115 68.9401 271.333 69.0391 271.547 69.1484C271.766 69.2578 271.958 69.3906 272.125 69.5469C272.292 69.7031 272.424 69.8906 272.523 70.1094C272.628 70.3281 272.68 70.5885 272.68 70.8906ZM278 72.2891C278 72.4401 277.99 72.5599 277.969 72.6484C277.948 72.737 277.917 72.8021 277.875 72.8438C277.833 72.8854 277.771 72.9245 277.688 72.9609C277.604 72.9974 277.508 73.026 277.398 73.0469C277.294 73.0729 277.182 73.0938 277.062 73.1094C276.943 73.125 276.823 73.1328 276.703 73.1328C276.339 73.1328 276.026 73.0859 275.766 72.9922C275.505 72.8932 275.292 72.7474 275.125 72.5547C274.958 72.3568 274.836 72.1094 274.758 71.8125C274.685 71.5104 274.648 71.1562 274.648 70.75V66.6406H273.664C273.586 66.6406 273.523 66.599 273.477 66.5156C273.43 66.4323 273.406 66.2969 273.406 66.1094C273.406 66.0104 273.411 65.9271 273.422 65.8594C273.438 65.7917 273.456 65.737 273.477 65.6953C273.497 65.6484 273.523 65.6172 273.555 65.6016C273.591 65.5807 273.63 65.5703 273.672 65.5703H274.648V63.8984C274.648 63.862 274.656 63.8281 274.672 63.7969C274.693 63.7656 274.727 63.7396 274.773 63.7188C274.826 63.6927 274.893 63.6745 274.977 63.6641C275.06 63.6536 275.164 63.6484 275.289 63.6484C275.419 63.6484 275.526 63.6536 275.609 63.6641C275.693 63.6745 275.758 63.6927 275.805 63.7188C275.852 63.7396 275.885 63.7656 275.906 63.7969C275.927 63.8281 275.938 63.862 275.938 63.8984V65.5703H277.742C277.784 65.5703 277.82 65.5807 277.852 65.6016C277.883 65.6172 277.909 65.6484 277.93 65.6953C277.956 65.737 277.974 65.7917 277.984 65.8594C277.995 65.9271 278 66.0104 278 66.1094C278 66.2969 277.977 66.4323 277.93 66.5156C277.883 66.599 277.82 66.6406 277.742 66.6406H275.938V70.5625C275.938 71.0469 276.008 71.4141 276.148 71.6641C276.294 71.9089 276.552 72.0312 276.922 72.0312C277.042 72.0312 277.148 72.0208 277.242 72C277.336 71.974 277.419 71.9479 277.492 71.9219C277.565 71.8958 277.628 71.8724 277.68 71.8516C277.732 71.8255 277.779 71.8125 277.82 71.8125C277.846 71.8125 277.87 71.8203 277.891 71.8359C277.917 71.8464 277.935 71.8698 277.945 71.9062C277.961 71.9427 277.974 71.9922 277.984 72.0547C277.995 72.1172 278 72.1953 278 72.2891ZM285.531 68.9844C285.531 69.1875 285.479 69.3333 285.375 69.4219C285.276 69.5052 285.161 69.5469 285.031 69.5469H280.422C280.422 69.9375 280.461 70.2891 280.539 70.6016C280.617 70.9141 280.747 71.1823 280.93 71.4062C281.112 71.6302 281.349 71.8021 281.641 71.9219C281.932 72.0417 282.289 72.1016 282.711 72.1016C283.044 72.1016 283.341 72.0755 283.602 72.0234C283.862 71.9661 284.086 71.9036 284.273 71.8359C284.466 71.7682 284.622 71.7083 284.742 71.6562C284.867 71.599 284.961 71.5703 285.023 71.5703C285.06 71.5703 285.091 71.5807 285.117 71.6016C285.148 71.6172 285.172 71.6432 285.188 71.6797C285.203 71.7161 285.214 71.7682 285.219 71.8359C285.229 71.8984 285.234 71.9766 285.234 72.0703C285.234 72.138 285.232 72.1979 285.227 72.25C285.221 72.2969 285.214 72.3411 285.203 72.3828C285.198 72.4193 285.185 72.4531 285.164 72.4844C285.148 72.5156 285.125 72.5469 285.094 72.5781C285.068 72.6042 284.984 72.651 284.844 72.7188C284.703 72.7812 284.521 72.8438 284.297 72.9062C284.073 72.9688 283.812 73.0234 283.516 73.0703C283.224 73.1224 282.911 73.1484 282.578 73.1484C282 73.1484 281.492 73.0677 281.055 72.9062C280.622 72.7448 280.258 72.5052 279.961 72.1875C279.664 71.8698 279.44 71.4714 279.289 70.9922C279.138 70.513 279.062 69.9557 279.062 69.3203C279.062 68.7161 279.141 68.1745 279.297 67.6953C279.453 67.2109 279.677 66.8021 279.969 66.4688C280.266 66.1302 280.622 65.8724 281.039 65.6953C281.456 65.513 281.922 65.4219 282.438 65.4219C282.99 65.4219 283.458 65.5104 283.844 65.6875C284.234 65.8646 284.555 66.1042 284.805 66.4062C285.055 66.7031 285.237 67.0547 285.352 67.4609C285.471 67.862 285.531 68.2917 285.531 68.75V68.9844ZM284.234 68.6016C284.25 67.9245 284.099 67.3932 283.781 67.0078C283.469 66.6224 283.003 66.4297 282.383 66.4297C282.065 66.4297 281.786 66.4896 281.547 66.6094C281.307 66.7292 281.107 66.888 280.945 67.0859C280.784 67.2839 280.659 67.5156 280.57 67.7812C280.482 68.0417 280.432 68.3151 280.422 68.6016H284.234ZM297.93 72.8047C297.93 72.8464 297.919 72.8828 297.898 72.9141C297.878 72.9401 297.844 72.9635 297.797 72.9844C297.75 73.0052 297.685 73.0208 297.602 73.0312C297.518 73.0417 297.414 73.0469 297.289 73.0469C297.159 73.0469 297.052 73.0417 296.969 73.0312C296.885 73.0208 296.818 73.0052 296.766 72.9844C296.719 72.9635 296.685 72.9401 296.664 72.9141C296.643 72.8828 296.633 72.8464 296.633 72.8047V68.5312C296.633 68.2344 296.607 67.9635 296.555 67.7188C296.503 67.474 296.419 67.263 296.305 67.0859C296.19 66.9089 296.044 66.7734 295.867 66.6797C295.69 66.5859 295.482 66.5391 295.242 66.5391C294.945 66.5391 294.646 66.6536 294.344 66.8828C294.047 67.112 293.719 67.4479 293.359 67.8906V72.8047C293.359 72.8464 293.349 72.8828 293.328 72.9141C293.307 72.9401 293.271 72.9635 293.219 72.9844C293.172 73.0052 293.107 73.0208 293.023 73.0312C292.94 73.0417 292.836 73.0469 292.711 73.0469C292.591 73.0469 292.487 73.0417 292.398 73.0312C292.315 73.0208 292.247 73.0052 292.195 72.9844C292.148 72.9635 292.115 72.9401 292.094 72.9141C292.078 72.8828 292.07 72.8464 292.07 72.8047V68.5312C292.07 68.2344 292.042 67.9635 291.984 67.7188C291.927 67.474 291.841 67.263 291.727 67.0859C291.612 66.9089 291.466 66.7734 291.289 66.6797C291.117 66.5859 290.911 66.5391 290.672 66.5391C290.375 66.5391 290.076 66.6536 289.773 66.8828C289.471 67.112 289.143 67.4479 288.789 67.8906V72.8047C288.789 72.8464 288.779 72.8828 288.758 72.9141C288.737 72.9401 288.703 72.9635 288.656 72.9844C288.609 73.0052 288.544 73.0208 288.461 73.0312C288.378 73.0417 288.271 73.0469 288.141 73.0469C288.016 73.0469 287.911 73.0417 287.828 73.0312C287.745 73.0208 287.677 73.0052 287.625 72.9844C287.578 72.9635 287.544 72.9401 287.523 72.9141C287.508 72.8828 287.5 72.8464 287.5 72.8047V65.7734C287.5 65.7318 287.508 65.6979 287.523 65.6719C287.539 65.6406 287.57 65.6146 287.617 65.5938C287.664 65.5677 287.724 65.5521 287.797 65.5469C287.87 65.5365 287.966 65.5312 288.086 65.5312C288.201 65.5312 288.294 65.5365 288.367 65.5469C288.445 65.5521 288.505 65.5677 288.547 65.5938C288.589 65.6146 288.617 65.6406 288.633 65.6719C288.654 65.6979 288.664 65.7318 288.664 65.7734V66.7031C289.06 66.2604 289.443 65.9375 289.812 65.7344C290.188 65.526 290.565 65.4219 290.945 65.4219C291.237 65.4219 291.497 65.4557 291.727 65.5234C291.961 65.5911 292.167 65.6875 292.344 65.8125C292.521 65.9323 292.672 66.0781 292.797 66.25C292.922 66.4167 293.026 66.6042 293.109 66.8125C293.344 66.5573 293.565 66.3411 293.773 66.1641C293.987 65.987 294.19 65.8438 294.383 65.7344C294.581 65.625 294.771 65.5469 294.953 65.5C295.141 65.4479 295.328 65.4219 295.516 65.4219C295.969 65.4219 296.349 65.5026 296.656 65.6641C296.964 65.8203 297.211 66.0312 297.398 66.2969C297.591 66.5625 297.727 66.875 297.805 67.2344C297.888 67.5885 297.93 67.9635 297.93 68.3594V72.8047Z" fill="black"/>
<path d="M47.5 95C73.7335 95 95 73.7335 95 47.5C95 21.2665 73.7335 0 47.5 0C21.2665 0 0 21.2665 0 47.5C0 73.7335 21.2665 95 47.5 95Z" fill="black" fill-opacity="0.25"/>
</svg>
