<svg width="170" height="54" viewBox="0 0 170 54" fill="none" xmlns="http://www.w3.org/2000/svg">
<g clip-path="url(#clip0)">
<path d="M11.5312 31.535C11.5312 31.7588 11.5197 31.9479 11.4967 32.1023C11.4814 32.2566 11.4545 32.3839 11.4162 32.4842C11.3778 32.5769 11.3279 32.6425 11.2666 32.6811C11.2129 32.7196 11.1515 32.7389 11.0825 32.7389H2.30339C1.99656 32.7389 1.75877 32.6502 1.59001 32.4727C1.42893 32.2952 1.34839 32.0367 1.34839 31.6971V31.1878C1.34839 31.0334 1.35606 30.8945 1.3714 30.771C1.39441 30.6398 1.42893 30.5086 1.47496 30.3774C1.52098 30.2462 1.58618 30.1035 1.67056 29.9491C1.76261 29.7948 1.87383 29.6096 2.00424 29.3935L7.78027 20.179H2.05026C1.95821 20.179 1.87767 20.1597 1.80863 20.1212C1.74727 20.0749 1.69357 20.0054 1.64754 19.9128C1.60919 19.8202 1.57851 19.6967 1.5555 19.5424C1.54016 19.388 1.53249 19.2028 1.53249 18.9867C1.53249 18.7552 1.54016 18.5623 1.5555 18.4079C1.57851 18.2458 1.60919 18.1185 1.64754 18.0259C1.69357 17.9256 1.74727 17.8561 1.80863 17.8175C1.87767 17.779 1.95821 17.7597 2.05026 17.7597H10.2771C10.5916 17.7597 10.8217 17.8407 10.9675 18.0028C11.1209 18.1648 11.1975 18.3925 11.1975 18.6857V19.253C11.1975 19.4613 11.186 19.6427 11.163 19.797C11.1477 19.9436 11.1132 20.0903 11.0595 20.2369C11.0135 20.3758 10.9483 20.5224 10.8639 20.6768C10.7795 20.8234 10.6721 21.0009 10.5417 21.2093L4.85773 30.2964H11.0825C11.2282 30.2964 11.3394 30.389 11.4162 30.5742C11.4929 30.7595 11.5312 31.0797 11.5312 31.535ZM22.485 31.5466C22.485 31.7704 22.4735 31.9595 22.4504 32.1138C22.4351 32.2604 22.4083 32.3801 22.3699 32.4727C22.3315 32.5653 22.2817 32.6347 22.2203 32.6811C22.1666 32.7196 22.1053 32.7389 22.0363 32.7389H14.5573C14.3042 32.7389 14.0894 32.6656 13.913 32.519C13.7442 32.3646 13.6599 32.1177 13.6599 31.7782V18.7204C13.6599 18.3809 13.7442 18.1378 13.913 17.9912C14.0894 17.8368 14.3042 17.7597 14.5573 17.7597H21.9902C22.0593 17.7597 22.1206 17.779 22.1743 17.8175C22.228 17.8561 22.274 17.9256 22.3124 18.0259C22.3507 18.1185 22.3776 18.242 22.3929 18.3963C22.4159 18.543 22.4274 18.732 22.4274 18.9636C22.4274 19.1796 22.4159 19.3648 22.3929 19.5192C22.3776 19.6658 22.3507 19.7855 22.3124 19.878C22.274 19.9707 22.228 20.0401 22.1743 20.0864C22.1206 20.125 22.0593 20.1443 21.9902 20.1443H16.6744V23.8023H21.1733C21.2423 23.8023 21.3037 23.8255 21.3574 23.8717C21.4188 23.9104 21.4686 23.9759 21.507 24.0685C21.5453 24.1534 21.5721 24.2731 21.5875 24.4274C21.6105 24.5741 21.622 24.7554 21.622 24.9715C21.622 25.1952 21.6105 25.3805 21.5875 25.5271C21.5721 25.6737 21.5453 25.7934 21.507 25.886C21.4686 25.9709 21.4188 26.0326 21.3574 26.0712C21.3037 26.1098 21.2423 26.129 21.1733 26.129H16.6744V30.3543H22.0363C22.1053 30.3543 22.1666 30.3774 22.2203 30.4237C22.2817 30.4623 22.3315 30.5279 22.3699 30.6205C22.4083 30.7131 22.4351 30.8366 22.4504 30.9909C22.4735 31.1376 22.485 31.3228 22.485 31.5466ZM36.2117 32.3453C36.2117 32.4302 36.1963 32.5035 36.1657 32.5653C36.135 32.6193 36.0621 32.6656 35.947 32.7042C35.8319 32.7428 35.6632 32.7698 35.4408 32.7852C35.2183 32.8007 34.9153 32.8084 34.5318 32.8084C34.2096 32.8084 33.9526 32.8007 33.7609 32.7852C33.5691 32.7698 33.4157 32.7428 33.3006 32.7042C33.1932 32.6579 33.1166 32.6039 33.0705 32.5422C33.0245 32.4727 32.9862 32.3917 32.9555 32.299L31.6208 28.9536C31.4597 28.5754 31.3024 28.2397 31.149 27.9465C30.9956 27.6532 30.823 27.4102 30.6312 27.2172C30.4472 27.0166 30.2324 26.8661 29.9869 26.7658C29.7415 26.6654 29.4576 26.6153 29.1355 26.6153H28.1919V32.3222C28.1919 32.3993 28.1651 32.4688 28.1114 32.5306C28.0654 32.5923 27.9849 32.6425 27.8698 32.6811C27.7548 32.7196 27.6013 32.7505 27.4095 32.7736C27.2178 32.7968 26.9723 32.8084 26.6732 32.8084C26.3817 32.8084 26.1362 32.7968 25.9368 32.7736C25.745 32.7505 25.5916 32.7196 25.4765 32.6811C25.3615 32.6425 25.281 32.5923 25.2349 32.5306C25.1889 32.4688 25.1659 32.3993 25.1659 32.3222V18.7204C25.1659 18.3809 25.2503 18.1378 25.419 17.9912C25.5954 17.8368 25.8102 17.7597 26.0633 17.7597H29.9179C30.3091 17.7597 30.6312 17.7674 30.8844 17.7828C31.1375 17.7982 31.3676 17.8175 31.5747 17.8407C32.1731 17.9256 32.71 18.0722 33.1856 18.2806C33.6689 18.489 34.0754 18.7629 34.4052 19.1025C34.7427 19.4343 34.9997 19.8318 35.1761 20.2948C35.3525 20.7501 35.4408 21.2749 35.4408 21.8691C35.4408 22.3707 35.3756 22.8299 35.2451 23.2467C35.1224 23.6557 34.9384 24.0222 34.6929 24.3464C34.4474 24.6705 34.1444 24.9522 33.7839 25.1914C33.4234 25.4306 33.013 25.6236 32.5527 25.7702C32.7752 25.8783 32.9823 26.0094 33.1741 26.1638C33.3735 26.3181 33.5576 26.5072 33.7264 26.731C33.9028 26.9471 34.0677 27.1979 34.2211 27.4835C34.3745 27.7612 34.5241 28.0777 34.6698 28.4327L35.924 31.3846C36.0391 31.6778 36.1158 31.8939 36.1542 32.0328C36.1925 32.164 36.2117 32.2682 36.2117 32.3453ZM32.3111 22.1817C32.3111 21.6878 32.1999 21.271 31.9774 20.9315C31.755 20.5919 31.3906 20.3526 30.8844 20.2137C30.7309 20.1752 30.5545 20.1443 30.3551 20.1212C30.1633 20.098 29.8949 20.0864 29.5497 20.0864H28.1919V24.3348H29.7338C30.1633 24.3348 30.5392 24.2847 30.8614 24.1843C31.1835 24.0763 31.452 23.9297 31.6668 23.7444C31.8816 23.5515 32.0426 23.3238 32.15 23.0615C32.2574 22.799 32.3111 22.5058 32.3111 22.1817ZM51.6067 25.0756C51.6067 26.3181 51.4533 27.4295 51.1465 28.4095C50.8397 29.3896 50.3833 30.2231 49.7773 30.9099C49.1713 31.5891 48.4196 32.1099 47.5221 32.4727C46.6323 32.8277 45.6006 33.0052 44.427 33.0052C43.2687 33.0052 42.2562 32.8547 41.3894 32.5537C40.5303 32.245 39.813 31.7782 39.2377 31.153C38.6625 30.5279 38.2291 29.733 37.9376 28.7684C37.6538 27.8037 37.5119 26.6616 37.5119 25.3419C37.5119 24.1303 37.6653 23.0422 37.9721 22.0775C38.2789 21.1051 38.7353 20.2794 39.3413 19.6002C39.9473 18.9211 40.6952 18.4002 41.585 18.0375C42.4825 17.6748 43.5218 17.4934 44.7031 17.4934C45.8307 17.4934 46.824 17.6439 47.6832 17.9449C48.55 18.2458 49.271 18.7089 49.8463 19.334C50.4293 19.9591 50.8665 20.7501 51.158 21.7071C51.4571 22.6563 51.6067 23.7792 51.6067 25.0756ZM48.4311 25.2377C48.4311 24.4506 48.3697 23.7367 48.247 23.0962C48.1242 22.4479 47.9133 21.8961 47.6141 21.4408C47.3227 20.9778 46.9314 20.6228 46.4405 20.3758C45.9496 20.1212 45.336 19.9938 44.5996 19.9938C43.8555 19.9938 43.2342 20.1366 42.7356 20.4221C42.237 20.7 41.8343 21.0743 41.5275 21.545C41.2206 22.0157 41.002 22.5676 40.8716 23.2004C40.7489 23.8255 40.6875 24.4892 40.6875 25.1914C40.6875 26.0094 40.7489 26.7465 40.8716 27.4024C40.9943 28.0507 41.2014 28.6063 41.493 29.0693C41.7844 29.5324 42.1756 29.8874 42.6666 30.1343C43.1575 30.3736 43.775 30.4932 44.519 30.4932C45.2631 30.4932 45.8844 30.3543 46.383 30.0765C46.8816 29.7986 47.2843 29.4205 47.5911 28.942C47.898 28.4636 48.1127 27.9079 48.2355 27.2751C48.3659 26.6345 48.4311 25.9554 48.4311 25.2377Z" fill="white"/>
<path d="M69.9042 31.7136C70.0467 31.9561 70.1287 32.1491 70.1505 32.2924C70.1836 32.4357 70.1505 32.5515 70.0518 32.6396C69.9536 32.7168 69.7892 32.7664 69.5592 32.7885C69.3398 32.8216 69.0441 32.8381 68.671 32.8381C68.3204 32.8381 68.0466 32.827 67.8496 32.805C67.6522 32.794 67.4934 32.7664 67.3728 32.7223C67.2633 32.6782 67.1753 32.6286 67.1096 32.5735C67.0552 32.5073 67.0058 32.4247 66.9621 32.3255L62.2279 23.8089L57.4449 32.3255C57.3899 32.4247 57.3298 32.5073 57.2636 32.5735C57.198 32.6396 57.1049 32.6948 56.9842 32.7389C56.8748 32.7719 56.7217 32.794 56.5242 32.805C56.3272 32.827 56.064 32.8381 55.7352 32.8381C55.3736 32.8381 55.0887 32.8216 54.8805 32.7885C54.6723 32.7664 54.5243 32.7168 54.4367 32.6396C54.36 32.5515 54.3326 32.4357 54.3545 32.2924C54.3874 32.1491 54.4751 31.9561 54.6175 31.7136L60.4196 21.8741L54.8805 12.3652C54.749 12.1227 54.6614 11.9298 54.6175 11.7864C54.5847 11.6321 54.612 11.5163 54.6997 11.4391C54.7874 11.351 54.9408 11.2958 55.16 11.2738C55.3791 11.2517 55.6805 11.2407 56.064 11.2407C56.3929 11.2407 56.6611 11.2517 56.8692 11.2738C57.0774 11.2848 57.2418 11.3124 57.3624 11.3564C57.483 11.3895 57.5705 11.4447 57.6255 11.5218C57.6805 11.588 57.7405 11.6651 57.8062 11.7534L62.376 19.7573L66.9127 11.7534C66.9671 11.6651 67.0221 11.588 67.0771 11.5218C67.1315 11.4447 67.2084 11.3895 67.3071 11.3564C67.4165 11.3124 67.5646 11.2848 67.7509 11.2738C67.9372 11.2517 68.1891 11.2407 68.5072 11.2407C68.8466 11.2407 69.1204 11.2573 69.3286 11.2903C69.548 11.3124 69.7011 11.362 69.7892 11.4391C69.8874 11.5163 69.9261 11.6321 69.9042 11.7864C69.8824 11.9298 69.8055 12.1227 69.6742 12.3652L64.1512 21.8079L69.9042 31.7136Z" fill="white"/>
<path d="M81.673 31.9171C81.673 32.056 81.6657 32.1795 81.65 32.2876C81.6348 32.3879 81.6079 32.4728 81.5697 32.5423C81.531 32.6117 81.485 32.6619 81.4317 32.6927C81.3857 32.7236 81.3319 32.739 81.2707 32.739H74.1251C73.9489 32.739 73.78 32.6812 73.619 32.5654C73.4653 32.4419 73.389 32.2297 73.389 31.9287V18.5701C73.389 18.2691 73.4653 18.0607 73.619 17.945C73.78 17.8215 73.9489 17.7598 74.1251 17.7598H81.1899C81.2511 17.7598 81.3049 17.7752 81.3509 17.8061C81.4048 17.8369 81.4469 17.8871 81.4777 17.9565C81.508 18.026 81.531 18.1148 81.5467 18.2228C81.5697 18.3231 81.581 18.4504 81.581 18.6048C81.581 18.7437 81.5697 18.8672 81.5467 18.9752C81.531 19.0755 81.508 19.1604 81.4777 19.2299C81.4469 19.2917 81.4048 19.338 81.3509 19.3688C81.3049 19.3997 81.2511 19.4151 81.1899 19.4151H75.3678V24.115H80.3612C80.4229 24.115 80.4768 24.1343 80.5228 24.1728C80.5761 24.2037 80.6182 24.25 80.649 24.3117C80.6872 24.3735 80.7141 24.4584 80.7298 24.5664C80.745 24.6745 80.7528 24.8018 80.7528 24.9484C80.7528 25.0873 80.745 25.2069 80.7298 25.3073C80.7141 25.4076 80.6872 25.4886 80.649 25.5503C80.6182 25.6121 80.5761 25.6584 80.5228 25.6893C80.4768 25.7125 80.4229 25.724 80.3612 25.724H75.3678V31.0837H81.2707C81.3319 31.0837 81.3857 31.0991 81.4317 31.13C81.485 31.1608 81.531 31.211 81.5697 31.2804C81.6079 31.3422 81.6348 31.4271 81.65 31.5351C81.6657 31.6354 81.673 31.7628 81.673 31.9171ZM96.1477 31.9171C96.1477 32.0715 96.1207 32.2027 96.0674 32.3107C96.0214 32.4187 95.9558 32.5075 95.8716 32.577C95.7948 32.6464 95.7067 32.6966 95.6068 32.7275C95.5075 32.7583 95.4076 32.7737 95.3078 32.7737H94.6749C94.4757 32.7737 94.299 32.7544 94.1458 32.7159C93.9999 32.6696 93.858 32.5924 93.72 32.4843C93.5898 32.3686 93.4552 32.2142 93.3171 32.0213C93.187 31.8284 93.0411 31.5814 92.8801 31.2804L88.1857 22.7606C87.94 22.3207 87.6909 21.8615 87.4378 21.383C87.1921 20.8968 86.962 20.4261 86.7472 19.9708H86.7242C86.7399 20.5264 86.7511 21.0936 86.7589 21.6724C86.7662 22.2512 86.7702 22.8262 86.7702 23.3972V32.4381C86.7702 32.4921 86.755 32.5461 86.7242 32.6001C86.6939 32.6464 86.64 32.685 86.5631 32.7159C86.4941 32.739 86.3982 32.7583 86.2753 32.7737C86.1603 32.7969 86.0111 32.8085 85.827 32.8085C85.643 32.8085 85.4893 32.7969 85.3664 32.7737C85.2514 32.7583 85.1594 32.739 85.0904 32.7159C85.0214 32.685 84.9714 32.6464 84.9411 32.6001C84.9103 32.5461 84.8946 32.4921 84.8946 32.4381V18.6164C84.8946 18.3077 84.9793 18.0877 85.1482 17.9565C85.3165 17.8254 85.5011 17.7598 85.7002 17.7598H86.6439C86.8661 17.7598 87.0501 17.7791 87.196 17.8176C87.3497 17.8562 87.4838 17.9218 87.5989 18.0145C87.7217 18.0993 87.8367 18.2228 87.9439 18.3849C88.0589 18.5392 88.1818 18.736 88.312 18.9752L91.9252 25.5503C92.1473 25.9517 92.3622 26.3453 92.5692 26.7311C92.7763 27.1093 92.976 27.4836 93.1679 27.854C93.3592 28.2244 93.5472 28.591 93.7312 28.9537C93.9231 29.3087 94.111 29.6675 94.2951 30.0303H94.3068C94.2917 29.4206 94.2799 28.7878 94.2721 28.1318C94.2721 27.4681 94.2721 26.8314 94.2721 26.2218V18.0955C94.2721 18.0414 94.2878 17.9913 94.3181 17.945C94.3489 17.8987 94.3988 17.8601 94.4679 17.8292C94.5447 17.7906 94.6407 17.7636 94.7557 17.7482C94.878 17.7327 95.0356 17.7251 95.2275 17.7251C95.3958 17.7251 95.5417 17.7327 95.6646 17.7482C95.7875 17.7636 95.8828 17.7906 95.9524 17.8292C96.0214 17.8601 96.0708 17.8987 96.1017 17.945C96.1325 17.9913 96.1477 18.0414 96.1477 18.0955V31.9171ZM108.103 28.537C108.103 29.2392 107.972 29.8643 107.711 30.4122C107.458 30.9602 107.102 31.4271 106.641 31.813C106.189 32.1911 105.652 32.4767 105.03 32.6696C104.417 32.8625 103.753 32.9589 103.04 32.9589C102.541 32.9589 102.077 32.9165 101.648 32.8317C101.226 32.7468 100.846 32.6426 100.509 32.5191C100.179 32.3956 99.8989 32.2683 99.6688 32.1371C99.4461 32.0059 99.289 31.894 99.197 31.8014C99.1123 31.7088 99.0472 31.593 99.0012 31.4541C98.963 31.3075 98.944 31.1146 98.944 30.8753C98.944 30.7055 98.9513 30.5666 98.967 30.4586C98.9821 30.3428 99.0051 30.2502 99.036 30.1808C99.0663 30.1113 99.105 30.065 99.151 30.0418C99.197 30.011 99.2503 29.9955 99.312 29.9955C99.4192 29.9955 99.569 30.0611 99.7609 30.1923C99.96 30.3235 100.213 30.4663 100.52 30.6206C100.827 30.775 101.195 30.9216 101.625 31.0605C102.062 31.1917 102.564 31.2573 103.132 31.2573C103.561 31.2573 103.953 31.1994 104.305 31.0837C104.666 30.9679 104.973 30.8058 105.226 30.5975C105.487 30.3814 105.686 30.119 105.824 29.8103C105.962 29.5016 106.031 29.1505 106.031 28.7569C106.031 28.3325 105.935 27.9697 105.744 27.6688C105.552 27.3678 105.299 27.1054 104.984 26.8816C104.67 26.6501 104.309 26.4417 103.903 26.2565C103.504 26.0635 103.094 25.8706 102.672 25.6777C102.25 25.4771 101.84 25.2571 101.441 25.0179C101.042 24.7787 100.685 24.4969 100.371 24.1728C100.056 23.8487 99.799 23.4706 99.5993 23.0384C99.408 22.5985 99.312 22.0737 99.312 21.4641C99.312 20.839 99.4231 20.2833 99.6458 19.7971C99.8759 19.3032 100.19 18.8903 100.589 18.5585C100.996 18.2266 101.475 17.9758 102.028 17.8061C102.587 17.6286 103.189 17.5398 103.834 17.5398C104.163 17.5398 104.493 17.5707 104.823 17.6324C105.161 17.6864 105.475 17.7636 105.767 17.864C106.066 17.9565 106.331 18.0646 106.561 18.1881C106.791 18.3039 106.94 18.4003 107.01 18.4775C107.086 18.5469 107.136 18.6048 107.159 18.6511C107.182 18.6897 107.201 18.7437 107.217 18.8132C107.232 18.8749 107.244 18.9521 107.251 19.0447C107.259 19.1373 107.263 19.2569 107.263 19.4035C107.263 19.5425 107.255 19.6659 107.24 19.7739C107.232 19.882 107.217 19.9746 107.194 20.0518C107.171 20.1213 107.136 20.1753 107.09 20.2138C107.052 20.2447 107.006 20.2602 106.952 20.2602C106.868 20.2602 106.733 20.2062 106.549 20.0981C106.373 19.9901 106.154 19.8704 105.893 19.7392C105.632 19.6003 105.322 19.4769 104.961 19.3688C104.608 19.2531 104.209 19.1952 103.765 19.1952C103.351 19.1952 102.99 19.2531 102.683 19.3688C102.377 19.4769 102.123 19.6235 101.924 19.8087C101.725 19.9939 101.575 20.2138 101.475 20.4685C101.376 20.7232 101.326 20.9933 101.326 21.2789C101.326 21.6956 101.422 22.0544 101.613 22.3554C101.805 22.6564 102.058 22.9226 102.373 23.1541C102.695 23.3857 103.059 23.5979 103.466 23.7908C103.872 23.9838 104.286 24.1806 104.708 24.3812C105.13 24.5742 105.544 24.7902 105.951 25.0295C106.357 25.261 106.718 25.5388 107.033 25.8629C107.355 26.1793 107.612 26.5575 107.804 26.9973C108.003 27.4296 108.103 27.9427 108.103 28.537ZM119.229 31.9171C119.229 32.056 119.221 32.1795 119.206 32.2876C119.19 32.3879 119.164 32.4728 119.125 32.5423C119.087 32.6117 119.041 32.6619 118.987 32.6927C118.941 32.7236 118.887 32.739 118.826 32.739H111.681C111.504 32.739 111.335 32.6812 111.174 32.5654C111.021 32.4419 110.944 32.2297 110.944 31.9287V18.5701C110.944 18.2691 111.021 18.0607 111.174 17.945C111.335 17.8215 111.504 17.7598 111.681 17.7598H118.745C118.807 17.7598 118.861 17.7752 118.907 17.8061C118.96 17.8369 119.002 17.8871 119.033 17.9565C119.064 18.026 119.087 18.1148 119.102 18.2228C119.125 18.3231 119.137 18.4504 119.137 18.6048C119.137 18.7437 119.125 18.8672 119.102 18.9752C119.087 19.0755 119.064 19.1604 119.033 19.2299C119.002 19.2917 118.96 19.338 118.907 19.3688C118.861 19.3997 118.807 19.4151 118.745 19.4151H112.924V24.115H117.917C117.978 24.115 118.032 24.1343 118.078 24.1728C118.132 24.2037 118.174 24.25 118.205 24.3117C118.243 24.3735 118.27 24.4584 118.285 24.5664C118.301 24.6745 118.308 24.8018 118.308 24.9484C118.308 25.0873 118.301 25.2069 118.285 25.3073C118.27 25.4076 118.243 25.4886 118.205 25.5503C118.174 25.6121 118.132 25.6584 118.078 25.6893C118.032 25.7125 117.978 25.724 117.917 25.724H112.924V31.0837H118.826C118.887 31.0837 118.941 31.0991 118.987 31.13C119.041 31.1608 119.087 31.211 119.125 31.2804C119.164 31.3422 119.19 31.4271 119.206 31.5351C119.221 31.6354 119.229 31.7628 119.229 31.9171Z" fill="white"/>
<path d="M56.0925 41.0913C56.0925 41.1148 56.0866 41.1354 56.0749 41.153C56.0632 41.1707 56.0428 41.1853 56.0135 41.1971C55.9844 41.2059 55.9449 41.2133 55.8952 41.2192C55.8485 41.228 55.7886 41.2324 55.7155 41.2324C55.6454 41.2324 55.5855 41.228 55.5358 41.2192C55.4861 41.2133 55.4466 41.2059 55.4174 41.1971C55.3882 41.1853 55.3678 41.1707 55.3561 41.153C55.3444 41.1354 55.3385 41.1148 55.3385 41.0913V35.6142C55.3385 35.5907 55.3444 35.5701 55.3561 35.5525C55.3707 35.5348 55.3926 35.5216 55.4218 35.5128C55.4539 35.501 55.4934 35.4922 55.5402 35.4863C55.5898 35.4775 55.6483 35.4731 55.7155 35.4731C55.7886 35.4731 55.8485 35.4775 55.8952 35.4863C55.9449 35.4922 55.9844 35.501 56.0135 35.5128C56.0428 35.5216 56.0632 35.5348 56.0749 35.5525C56.0866 35.5701 56.0925 35.5907 56.0925 35.6142V41.0913ZM60.9139 41.0957C60.9139 41.1192 60.9082 41.1398 60.8965 41.1575C60.8847 41.1721 60.8656 41.1853 60.8398 41.1971C60.8134 41.2089 60.777 41.2177 60.7298 41.2236C60.6833 41.2295 60.6249 41.2324 60.5548 41.2324C60.4813 41.2324 60.4218 41.2295 60.3747 41.2236C60.3281 41.2177 60.2916 41.2089 60.2653 41.1971C60.2389 41.1853 60.2198 41.1721 60.208 41.1575C60.1968 41.1398 60.1907 41.1192 60.1907 41.0957V38.7717C60.1907 38.5453 60.1733 38.363 60.1385 38.2249C60.1031 38.0867 60.0521 37.9676 59.9848 37.8676C59.9174 37.7677 59.8299 37.6913 59.7216 37.6384C59.6167 37.5854 59.4938 37.559 59.3536 37.559C59.1723 37.559 58.9911 37.6236 58.8099 37.753C58.6287 37.8824 58.439 38.072 58.2404 38.3219V41.0957C58.2404 41.1192 58.2343 41.1398 58.2225 41.1575C58.2113 41.1721 58.1922 41.1853 58.1658 41.1971C58.1394 41.2089 58.103 41.2177 58.0564 41.2236C58.0093 41.2295 57.9492 41.2324 57.8763 41.2324C57.8062 41.2324 57.7478 41.2295 57.7013 41.2236C57.6541 41.2177 57.6165 41.2089 57.5874 41.1971C57.561 41.1853 57.5419 41.1721 57.5301 41.1575C57.5212 41.1398 57.5172 41.1192 57.5172 41.0957V37.1268C57.5172 37.1033 57.5212 37.0842 57.5301 37.0695C57.5391 37.0518 57.5565 37.0372 57.5829 37.0254C57.6092 37.0107 57.6429 37.0019 57.6833 36.9989C57.7243 36.9931 57.7787 36.9901 57.846 36.9901C57.91 36.9901 57.9627 36.9931 58.0037 36.9989C58.0474 37.0019 58.0811 37.0107 58.1041 37.0254C58.1277 37.0372 58.1439 37.0518 58.1523 37.0695C58.1641 37.0842 58.1703 37.1033 58.1703 37.1268V37.6516C58.3925 37.4017 58.613 37.2194 58.8318 37.1048C59.054 36.9871 59.2778 36.9284 59.5028 36.9284C59.7654 36.9284 59.9864 36.9739 60.1643 37.0651C60.3455 37.1533 60.4919 37.2723 60.603 37.4223C60.7141 37.5722 60.7927 37.7486 60.8398 37.9515C60.8892 38.1513 60.9139 38.3924 60.9139 38.6747V41.0957ZM64.1972 40.8047C64.1972 40.8899 64.191 40.9575 64.1798 41.0075C64.168 41.0575 64.1506 41.0942 64.127 41.1178C64.1035 41.1413 64.0687 41.1633 64.0215 41.1839C63.975 41.2045 63.9211 41.2206 63.8594 41.2324C63.8011 41.2471 63.7382 41.2589 63.6709 41.2677C63.6041 41.2765 63.5368 41.2809 63.4695 41.2809C63.2647 41.2809 63.0896 41.2544 62.9438 41.2015C62.7973 41.1457 62.6778 41.0634 62.5841 40.9546C62.4904 40.8429 62.422 40.7032 62.3782 40.5356C62.3373 40.3651 62.3165 40.1652 62.3165 39.9359V37.6163H61.7644C61.7207 37.6163 61.6853 37.5928 61.6589 37.5457C61.6331 37.4987 61.6197 37.4223 61.6197 37.3164C61.6197 37.2606 61.6225 37.2135 61.6286 37.1753C61.6371 37.1371 61.6477 37.1062 61.6589 37.0827C61.6707 37.0562 61.6853 37.0386 61.7033 37.0298C61.7235 37.018 61.7453 37.0121 61.7689 37.0121H62.3165V36.0684C62.3165 36.0479 62.321 36.0287 62.33 36.0111C62.3417 35.9935 62.3603 35.9788 62.3866 35.967C62.4158 35.9523 62.454 35.942 62.5005 35.9362C62.5477 35.9302 62.606 35.9273 62.6761 35.9273C62.7491 35.9273 62.8091 35.9302 62.8557 35.9362C62.9028 35.942 62.9393 35.9523 62.9656 35.967C62.9914 35.9788 63.0105 35.9935 63.0223 36.0111C63.0341 36.0287 63.0397 36.0479 63.0397 36.0684V37.0121H64.0524C64.076 37.0121 64.0962 37.018 64.1136 37.0298C64.1315 37.0386 64.1461 37.0562 64.1579 37.0827C64.1725 37.1062 64.1826 37.1371 64.1882 37.1753C64.1944 37.2135 64.1972 37.2606 64.1972 37.3164C64.1972 37.4223 64.1837 37.4987 64.1579 37.5457C64.1315 37.5928 64.0962 37.6163 64.0524 37.6163H63.0397V39.8301C63.0397 40.1035 63.0795 40.3108 63.1581 40.4519C63.24 40.5901 63.3848 40.6591 63.5923 40.6591C63.6597 40.6591 63.7191 40.6532 63.7719 40.6415C63.8246 40.6268 63.8712 40.6121 63.9121 40.5974C63.9531 40.5827 63.9879 40.5695 64.0176 40.5577C64.0468 40.543 64.0732 40.5356 64.0962 40.5356C64.1108 40.5356 64.1242 40.5401 64.1354 40.5489C64.1506 40.5548 64.1607 40.568 64.1663 40.5885C64.1753 40.6091 64.1826 40.6371 64.1882 40.6724C64.1944 40.7076 64.1972 40.7517 64.1972 40.8047ZM68.4225 38.9393C68.4225 39.0539 68.3933 39.1362 68.3349 39.1862C68.2794 39.2333 68.2149 39.2568 68.1419 39.2568H65.556C65.556 39.4773 65.5779 39.6757 65.6217 39.8521C65.6654 40.0285 65.7384 40.1799 65.8411 40.3063C65.9432 40.4327 66.0761 40.5298 66.2394 40.5974C66.4032 40.665 66.6035 40.6988 66.8403 40.6988C67.0271 40.6988 67.1938 40.6841 67.3396 40.6547C67.4861 40.6223 67.6117 40.5871 67.7167 40.5489C67.8249 40.5106 67.9125 40.4768 67.9798 40.4474C68.0499 40.4151 68.1027 40.3989 68.1375 40.3989C68.1582 40.3989 68.1756 40.4048 68.1902 40.4166C68.2076 40.4254 68.2211 40.4401 68.2295 40.4607C68.2384 40.4812 68.2441 40.5106 68.2474 40.5489C68.253 40.5841 68.2558 40.6283 68.2558 40.6812C68.2558 40.7194 68.2547 40.7532 68.2514 40.7826C68.2485 40.8091 68.2441 40.834 68.2384 40.8576C68.2356 40.8782 68.2283 40.8972 68.2166 40.9149C68.2076 40.9325 68.1947 40.9502 68.1773 40.9678C68.1627 40.9825 68.1156 41.009 68.037 41.0472C67.9579 41.0824 67.8558 41.1178 67.7301 41.153C67.6045 41.1883 67.458 41.2192 67.2919 41.2456C67.1281 41.275 66.9525 41.2897 66.7657 41.2897C66.4414 41.2897 66.1564 41.2442 65.9112 41.153C65.6682 41.0619 65.464 40.9267 65.2974 40.7473C65.1308 40.568 65.0051 40.3431 64.9204 40.0726C64.8356 39.8021 64.793 39.4875 64.793 39.1289C64.793 38.7878 64.8368 38.4821 64.9248 38.2116C65.0124 37.9382 65.138 37.7075 65.3019 37.5193C65.4685 37.3282 65.6682 37.1827 65.9022 37.0827C66.1362 36.9798 66.3976 36.9284 66.6866 36.9284C66.9963 36.9284 67.2594 36.9783 67.476 37.0783C67.6948 37.1783 67.8749 37.3135 68.0151 37.484C68.1554 37.6516 68.2575 37.85 68.3215 38.0793C68.3888 38.3057 68.4225 38.5483 68.4225 38.807V38.9393ZM67.6948 38.7232C67.7038 38.341 67.619 38.0411 67.4406 37.8236C67.2656 37.606 67.0036 37.4972 66.6563 37.4972C66.4779 37.4972 66.3213 37.5311 66.1872 37.5987C66.0526 37.6663 65.9404 37.7559 65.8495 37.8676C65.7591 37.9794 65.689 38.1102 65.6391 38.2601C65.5897 38.4072 65.5616 38.5615 65.556 38.7232H67.6948ZM70.2504 41.0957C70.2504 41.1192 70.2448 41.1398 70.233 41.1575C70.2212 41.1721 70.2021 41.1853 70.1758 41.1971C70.1494 41.2089 70.1129 41.2177 70.0664 41.2236C70.0192 41.2295 69.9598 41.2324 69.8863 41.2324C69.8167 41.2324 69.7578 41.2295 69.7112 41.2236C69.6646 41.2177 69.6265 41.2089 69.5973 41.1971C69.571 41.1853 69.5519 41.1721 69.5401 41.1575C69.5317 41.1398 69.5272 41.1192 69.5272 41.0957V35.2041C69.5272 35.1806 69.5317 35.16 69.5401 35.1424C69.5519 35.1247 69.571 35.11 69.5973 35.0983C69.6265 35.0865 69.6646 35.0777 69.7112 35.0718C69.7578 35.0659 69.8167 35.063 69.8863 35.063C69.9598 35.063 70.0192 35.0659 70.0664 35.0718C70.1129 35.0777 70.1494 35.0865 70.1758 35.0983C70.2021 35.11 70.2212 35.1247 70.233 35.1424C70.2448 35.16 70.2504 35.1806 70.2504 35.2041V41.0957ZM72.3106 41.0957C72.3106 41.1192 72.3044 41.1398 72.2932 41.1575C72.2814 41.1721 72.2623 41.1853 72.236 41.1971C72.2096 41.2089 72.1731 41.2177 72.1266 41.2236C72.0794 41.2295 72.02 41.2324 71.9465 41.2324C71.8763 41.2324 71.818 41.2295 71.7714 41.2236C71.7248 41.2177 71.6867 41.2089 71.6575 41.1971C71.6312 41.1853 71.6121 41.1721 71.6003 41.1575C71.5919 41.1398 71.5874 41.1192 71.5874 41.0957V35.2041C71.5874 35.1806 71.5919 35.16 71.6003 35.1424C71.6121 35.1247 71.6312 35.11 71.6575 35.0983C71.6867 35.0865 71.7248 35.0777 71.7714 35.0718C71.818 35.0659 71.8763 35.063 71.9465 35.063C72.02 35.063 72.0794 35.0659 72.1266 35.0718C72.1731 35.0777 72.2096 35.0865 72.236 35.0983C72.2623 35.11 72.2814 35.1247 72.2932 35.1424C72.3044 35.16 72.3106 35.1806 72.3106 35.2041V41.0957ZM74.3708 41.0957C74.3708 41.1192 74.3646 41.1398 74.3528 41.1575C74.3416 41.1721 74.3225 41.1853 74.2962 41.1971C74.2698 41.2089 74.2333 41.2177 74.1868 41.2236C74.1396 41.2295 74.0796 41.2324 74.0067 41.2324C73.9365 41.2324 73.8782 41.2295 73.8316 41.2236C73.7845 41.2177 73.7469 41.2089 73.7177 41.1971C73.6914 41.1853 73.6723 41.1721 73.6605 41.1575C73.6515 41.1398 73.6476 41.1192 73.6476 41.0957V37.1268C73.6476 37.1062 73.6515 37.0871 73.6605 37.0695C73.6723 37.0518 73.6914 37.0372 73.7177 37.0254C73.7469 37.0136 73.7845 37.0048 73.8316 36.9989C73.8782 36.9931 73.9365 36.9901 74.0067 36.9901C74.0796 36.9901 74.1396 36.9931 74.1868 36.9989C74.2333 37.0048 74.2698 37.0136 74.2962 37.0254C74.3225 37.0372 74.3416 37.0518 74.3528 37.0695C74.3646 37.0871 74.3708 37.1062 74.3708 37.1268V41.0957ZM74.4538 35.7862C74.4538 35.9567 74.4218 36.0728 74.3573 36.1346C74.2934 36.1963 74.175 36.2272 74.0022 36.2272C73.8327 36.2272 73.716 36.1978 73.6515 36.139C73.5904 36.0773 73.5595 35.9626 73.5595 35.795C73.5595 35.6245 73.592 35.5084 73.656 35.4467C73.7205 35.3849 73.8389 35.354 74.0112 35.354C74.1806 35.354 74.2962 35.3849 74.3573 35.4467C74.4218 35.5054 74.4538 35.6186 74.4538 35.7862ZM79.0034 37.3076C79.0034 37.4105 78.9888 37.4855 78.9597 37.5325C78.9339 37.5766 78.8985 37.5987 78.8547 37.5987H78.2892C78.3913 37.7045 78.4631 37.8221 78.5041 37.9515C78.545 38.0779 78.5652 38.2102 78.5652 38.3483C78.5652 38.5777 78.5288 38.7805 78.4558 38.9569C78.3829 39.1333 78.2774 39.2833 78.14 39.4067C78.0059 39.5272 77.8448 39.6199 77.658 39.6845C77.4712 39.7492 77.2636 39.7816 77.0358 39.7816C76.8748 39.7816 76.7216 39.761 76.5752 39.7198C76.4321 39.6757 76.321 39.6213 76.2425 39.5566C76.1897 39.6096 76.146 39.6698 76.1106 39.7374C76.0786 39.8051 76.0624 39.883 76.0624 39.9712C76.0624 40.0741 76.1095 40.1593 76.2026 40.2269C76.2991 40.2946 76.4265 40.3313 76.5842 40.3372L77.6143 40.3813C77.8101 40.3872 77.9896 40.4151 78.1534 40.4651C78.3173 40.5121 78.4586 40.5812 78.5787 40.6724C78.6982 40.7605 78.7919 40.8708 78.8592 41.0031C78.926 41.1325 78.9597 41.2838 78.9597 41.4573C78.9597 41.6396 78.9221 41.813 78.8458 41.9777C78.77 42.1423 78.6533 42.2864 78.4951 42.4098C78.3403 42.5363 78.1416 42.6347 77.8993 42.7053C77.6563 42.7788 77.3702 42.8156 77.0397 42.8156C76.7216 42.8156 76.4495 42.7876 76.2245 42.7318C76.0029 42.6789 75.82 42.6054 75.6769 42.5113C75.5339 42.4172 75.4301 42.304 75.3655 42.1717C75.3016 42.0424 75.269 41.9013 75.269 41.7483C75.269 41.6514 75.2808 41.5573 75.3044 41.4661C75.3274 41.375 75.3627 41.2882 75.4093 41.2059C75.4592 41.1237 75.5193 41.0457 75.5894 40.9722C75.6623 40.8958 75.7454 40.8208 75.8391 40.7473C75.696 40.6738 75.5894 40.5812 75.5193 40.4695C75.4519 40.3578 75.4183 40.2373 75.4183 40.1079C75.4183 39.9286 75.4548 39.7683 75.5277 39.6272C75.6006 39.4861 75.6915 39.3597 75.7998 39.2479C75.7089 39.1392 75.6371 39.0172 75.5849 38.8819C75.5322 38.7438 75.5058 38.5777 75.5058 38.3836C75.5058 38.1573 75.544 37.9544 75.6197 37.7751C75.696 37.5957 75.8009 37.4443 75.9356 37.3209C76.0697 37.1973 76.2307 37.1033 76.4175 37.0386C76.6077 36.971 76.8136 36.9372 77.0358 36.9372C77.1553 36.9372 77.2664 36.9445 77.3685 36.9593C77.474 36.971 77.5716 36.9886 77.6625 37.0121H78.8547C78.9041 37.0121 78.9412 37.0372 78.9642 37.0871C78.9905 37.1342 79.0034 37.2077 79.0034 37.3076ZM77.8729 38.3527C77.8729 38.0823 77.7983 37.8721 77.649 37.7221C77.5032 37.5693 77.2945 37.4928 77.0223 37.4928C76.8821 37.4928 76.7592 37.5163 76.6543 37.5634C76.5522 37.6104 76.4658 37.6751 76.3956 37.7574C76.3283 37.8398 76.2773 37.9353 76.2425 38.044C76.2099 38.1499 76.1942 38.2616 76.1942 38.3792C76.1942 38.6409 76.2672 38.8467 76.413 38.9966C76.5623 39.1466 76.7699 39.2215 77.0358 39.2215C77.1789 39.2215 77.3029 39.1994 77.4083 39.1554C77.5133 39.1083 77.5997 39.0451 77.667 38.9657C77.7371 38.8834 77.7882 38.7894 77.8202 38.6835C77.8555 38.5777 77.8729 38.4674 77.8729 38.3527ZM78.2365 41.497C78.2365 41.3265 78.1663 41.1957 78.0261 41.1045C77.8892 41.0104 77.7018 40.9605 77.465 40.9546L76.4439 40.9193C76.3502 40.9928 76.2728 41.0634 76.2116 41.131C76.1533 41.1957 76.1061 41.2574 76.0713 41.3162C76.036 41.3779 76.0113 41.4382 75.9967 41.497C75.9849 41.5558 75.9793 41.6161 75.9793 41.6778C75.9793 41.8689 76.0758 42.013 76.2688 42.11C76.4613 42.2099 76.73 42.2599 77.0751 42.2599C77.2945 42.2599 77.4768 42.2378 77.6232 42.1938C77.7719 42.1526 77.892 42.0967 77.9823 42.0262C78.0732 41.9556 78.1372 41.8748 78.1753 41.7836C78.2163 41.6925 78.2365 41.597 78.2365 41.497ZM83.2203 38.9393C83.2203 39.0539 83.1911 39.1362 83.1328 39.1862C83.0773 39.2333 83.0127 39.2568 82.9398 39.2568H80.3539C80.3539 39.4773 80.3758 39.6757 80.4195 39.8521C80.4633 40.0285 80.5362 40.1799 80.6389 40.3063C80.741 40.4327 80.874 40.5298 81.0378 40.5974C81.2011 40.665 81.4014 40.6988 81.6381 40.6988C81.825 40.6988 81.9916 40.6841 82.1375 40.6547C82.2839 40.6223 82.4096 40.5871 82.5145 40.5489C82.6228 40.5106 82.7103 40.4768 82.7777 40.4474C82.8478 40.4151 82.9005 40.3989 82.9353 40.3989C82.9561 40.3989 82.9735 40.4048 82.988 40.4166C83.0054 40.4254 83.0189 40.4401 83.0273 40.4607C83.0363 40.4812 83.0419 40.5106 83.0453 40.5489C83.0509 40.5841 83.0537 40.6283 83.0537 40.6812C83.0537 40.7194 83.0526 40.7532 83.0492 40.7826C83.0464 40.8091 83.0419 40.834 83.0363 40.8576C83.0335 40.8782 83.0262 40.8972 83.0144 40.9149C83.0054 40.9325 82.9925 40.9502 82.9751 40.9678C82.9606 40.9825 82.9134 41.009 82.8349 41.0472C82.7558 41.0824 82.6537 41.1178 82.528 41.153C82.4023 41.1883 82.2559 41.2192 82.0892 41.2456C81.926 41.275 81.7504 41.2897 81.5635 41.2897C81.2392 41.2897 80.9542 41.2442 80.709 41.153C80.4661 41.0619 80.2619 40.9267 80.0952 40.7473C79.9286 40.568 79.8029 40.3431 79.7182 40.0726C79.6335 39.8021 79.5908 39.4875 79.5908 39.1289C79.5908 38.7878 79.6352 38.4821 79.7227 38.2116C79.8102 37.9382 79.9359 37.7075 80.0997 37.5193C80.2658 37.3282 80.4661 37.1827 80.7001 37.0827C80.934 36.9798 81.1955 36.9284 81.4844 36.9284C81.7941 36.9284 82.0573 36.9783 82.2738 37.0783C82.4926 37.1783 82.6727 37.3135 82.813 37.484C82.9533 37.6516 83.0554 37.85 83.1193 38.0793C83.1867 38.3057 83.2203 38.5483 83.2203 38.807V38.9393ZM82.4926 38.7232C82.5016 38.341 82.4169 38.0411 82.2385 37.8236C82.0634 37.606 81.8014 37.4972 81.4541 37.4972C81.2757 37.4972 81.1192 37.5311 80.9851 37.5987C80.8504 37.6663 80.7382 37.7559 80.6473 37.8676C80.557 37.9794 80.4869 38.1102 80.4369 38.2601C80.3876 38.4072 80.3595 38.5615 80.3539 38.7232H82.4926ZM87.7222 41.0957C87.7222 41.1192 87.7161 41.1398 87.7043 41.1575C87.6925 41.1721 87.674 41.1853 87.6476 41.1971C87.6212 41.2089 87.5848 41.2177 87.5376 41.2236C87.4911 41.2295 87.4327 41.2324 87.3626 41.2324C87.2897 41.2324 87.2296 41.2295 87.1831 41.2236C87.1359 41.2177 87.0995 41.2089 87.0731 41.1971C87.0467 41.1853 87.0282 41.1721 87.0164 41.1575C87.0046 41.1398 86.9985 41.1192 86.9985 41.0957V38.7717C86.9985 38.5453 86.9811 38.363 86.9463 38.2249C86.9109 38.0867 86.8599 37.9676 86.7926 37.8676C86.7258 37.7677 86.6377 37.6913 86.53 37.6384C86.4245 37.5854 86.3016 37.559 86.1614 37.559C85.9802 37.559 85.7989 37.6236 85.6183 37.753C85.4371 37.8824 85.2469 38.072 85.0482 38.3219V41.0957C85.0482 41.1192 85.0426 41.1398 85.0308 41.1575C85.0191 41.1721 85 41.1853 84.9736 41.1971C84.9473 41.2089 84.9108 41.2177 84.8642 41.2236C84.8171 41.2295 84.7576 41.2324 84.6847 41.2324C84.614 41.2324 84.5556 41.2295 84.5091 41.2236C84.4625 41.2177 84.4243 41.2089 84.3952 41.1971C84.3688 41.1853 84.3497 41.1721 84.338 41.1575C84.3295 41.1398 84.325 41.1192 84.325 41.0957V37.1268C84.325 37.1033 84.3295 37.0842 84.338 37.0695C84.3469 37.0518 84.3643 37.0372 84.3907 37.0254C84.4171 37.0107 84.4507 37.0019 84.4917 36.9989C84.5326 36.9931 84.5865 36.9901 84.6538 36.9901C84.7178 36.9901 84.7705 36.9931 84.8115 36.9989C84.8552 37.0019 84.8889 37.0107 84.9125 37.0254C84.9355 37.0372 84.9517 37.0518 84.9607 37.0695C84.9725 37.0842 84.9781 37.1033 84.9781 37.1268V37.6516C85.2003 37.4017 85.4208 37.2194 85.6402 37.1048C85.8618 36.9871 86.0856 36.9284 86.3106 36.9284C86.5738 36.9284 86.7943 36.9739 86.9727 37.0651C87.1539 37.1533 87.2998 37.2723 87.4109 37.4223C87.5219 37.5722 87.6005 37.7486 87.6476 37.9515C87.697 38.1513 87.7222 38.3924 87.7222 38.6747V41.0957ZM91.8774 40.4916C91.8774 40.5415 91.8757 40.5856 91.8729 40.6239C91.8701 40.6591 91.8639 40.69 91.8555 40.7164C91.8494 40.74 91.841 40.762 91.8292 40.7826C91.8202 40.8002 91.7972 40.8282 91.759 40.8664C91.7237 40.9016 91.6625 40.9473 91.575 41.0031C91.4869 41.056 91.3876 41.1045 91.2771 41.1486C91.1688 41.1898 91.0504 41.2236 90.9219 41.25C90.7935 41.2765 90.6605 41.2897 90.523 41.2897C90.2397 41.2897 89.9883 41.2427 89.769 41.1486C89.5496 41.0546 89.3656 40.9178 89.2169 40.7385C89.0705 40.5562 88.9582 40.3342 88.8791 40.0726C88.8034 39.808 88.7652 39.5037 88.7652 39.1598C88.7652 38.7688 88.8118 38.4336 88.9055 38.1543C89.002 37.8721 89.1322 37.6413 89.2954 37.462C89.4621 37.2826 89.6562 37.1503 89.8784 37.0651C90.1034 36.9769 90.3463 36.9328 90.6061 36.9328C90.7317 36.9328 90.8529 36.9445 90.9702 36.9681C91.0897 36.9916 91.1991 37.0224 91.299 37.0606C91.3983 37.0989 91.4858 37.143 91.5615 37.1929C91.6407 37.243 91.6979 37.2856 91.7327 37.3209C91.7675 37.3561 91.791 37.3841 91.8028 37.4046C91.8174 37.4252 91.8292 37.4502 91.8381 37.4796C91.8466 37.506 91.8527 37.5369 91.8555 37.5722C91.8583 37.6075 91.86 37.6516 91.86 37.7045C91.86 37.8192 91.8466 37.9 91.8202 37.9471C91.7938 37.9912 91.7618 38.0132 91.7237 38.0132C91.6799 38.0132 91.6289 37.9897 91.5705 37.9427C91.515 37.8927 91.4432 37.8383 91.3556 37.7795C91.2681 37.7207 91.1615 37.6678 91.0358 37.6207C90.913 37.5707 90.7671 37.5457 90.5977 37.5457C90.2498 37.5457 89.9822 37.681 89.7953 37.9515C89.6113 38.219 89.5193 38.6085 89.5193 39.1201C89.5193 39.3758 89.5423 39.6007 89.5894 39.7948C89.6388 39.9859 89.7106 40.1461 89.8038 40.2755C89.8974 40.4048 90.0113 40.5018 90.146 40.5665C90.2835 40.6283 90.4394 40.6591 90.615 40.6591C90.7817 40.6591 90.9276 40.6327 91.0532 40.5797C91.1789 40.5268 91.2872 40.4695 91.3775 40.4077C91.4712 40.3431 91.5486 40.2858 91.6098 40.2357C91.6743 40.1829 91.7237 40.1564 91.759 40.1564C91.7792 40.1564 91.7972 40.1623 91.8118 40.174C91.8264 40.1858 91.8381 40.2064 91.8466 40.2357C91.8583 40.2622 91.8656 40.2975 91.8684 40.3416C91.8746 40.3828 91.8774 40.4327 91.8774 40.4916ZM96.2037 38.9393C96.2037 39.0539 96.1745 39.1362 96.1156 39.1862C96.0606 39.2333 95.9961 39.2568 95.9232 39.2568H93.3367C93.3367 39.4773 93.3586 39.6757 93.4029 39.8521C93.4467 40.0285 93.5196 40.1799 93.6217 40.3063C93.7239 40.4327 93.8568 40.5298 94.0207 40.5974C94.1845 40.665 94.3848 40.6988 94.621 40.6988C94.8084 40.6988 94.975 40.6841 95.1209 40.6547C95.2668 40.6223 95.3924 40.5871 95.4979 40.5489C95.6062 40.5106 95.6937 40.4768 95.761 40.4474C95.8312 40.4151 95.8834 40.3989 95.9187 40.3989C95.9389 40.3989 95.9569 40.4048 95.9714 40.4166C95.9888 40.4254 96.0017 40.4401 96.0107 40.4607C96.0197 40.4812 96.0253 40.5106 96.0281 40.5489C96.0343 40.5841 96.0371 40.6283 96.0371 40.6812C96.0371 40.7194 96.0354 40.7532 96.0326 40.7826C96.0298 40.8091 96.0253 40.834 96.0197 40.8576C96.0163 40.8782 96.009 40.8972 95.9978 40.9149C95.9888 40.9325 95.9754 40.9502 95.958 40.9678C95.9434 40.9825 95.8968 41.009 95.8177 41.0472C95.7392 41.0824 95.6365 41.1178 95.5108 41.153C95.3851 41.1883 95.2393 41.2192 95.0726 41.2456C94.9088 41.275 94.7338 41.2897 94.5469 41.2897C94.2226 41.2897 93.9376 41.2442 93.6919 41.153C93.4495 41.0619 93.2447 40.9267 93.0781 40.7473C92.912 40.568 92.7863 40.3431 92.7016 40.0726C92.6169 39.8021 92.5742 39.4875 92.5742 39.1289C92.5742 38.7878 92.618 38.4821 92.7055 38.2116C92.7936 37.9382 92.9193 37.7075 93.0826 37.5193C93.2492 37.3282 93.4495 37.1827 93.6835 37.0827C93.9169 36.9798 94.1783 36.9284 94.4678 36.9284C94.7775 36.9284 95.0407 36.9783 95.2567 37.0783C95.476 37.1783 95.6556 37.3135 95.7958 37.484C95.9361 37.6516 96.0382 37.85 96.1027 38.0793C96.1701 38.3057 96.2037 38.5483 96.2037 38.807V38.9393ZM95.476 38.7232C95.485 38.341 95.3997 38.0411 95.2219 37.8236C95.0463 37.606 94.7848 37.4972 94.437 37.4972C94.2591 37.4972 94.1026 37.5311 93.9679 37.5987C93.8338 37.6663 93.721 37.7559 93.6307 37.8676C93.5398 37.9794 93.4697 38.1102 93.4203 38.2601C93.3704 38.4072 93.3429 38.5615 93.3367 38.7232H95.476ZM103.673 40.9369C103.696 41.0016 103.708 41.0546 103.708 41.0957C103.711 41.1339 103.701 41.1633 103.677 41.1839C103.653 41.2045 103.614 41.2177 103.559 41.2236C103.506 41.2295 103.435 41.2324 103.344 41.2324C103.253 41.2324 103.18 41.2295 103.125 41.2236C103.072 41.2206 103.031 41.2148 103.002 41.2059C102.976 41.1942 102.955 41.1795 102.941 41.1619C102.929 41.1442 102.917 41.1222 102.906 41.0957L102.419 39.7066H100.061L99.5964 41.078C99.5875 41.1045 99.5757 41.1281 99.5611 41.1486C99.5465 41.1663 99.5246 41.1824 99.4954 41.1971C99.4691 41.2089 99.4298 41.2177 99.3771 41.2236C99.3271 41.2295 99.2615 41.2324 99.1796 41.2324C99.0948 41.2324 99.0247 41.228 98.9692 41.2192C98.917 41.2133 98.8788 41.2001 98.8553 41.1795C98.8351 41.1589 98.825 41.1295 98.825 41.0913C98.8278 41.0502 98.8407 40.9972 98.8642 40.9325L100.767 35.6319C100.778 35.5995 100.793 35.573 100.811 35.5525C100.831 35.5319 100.859 35.5157 100.894 35.5039C100.932 35.4922 100.978 35.4849 101.034 35.4819C101.092 35.4761 101.165 35.4731 101.253 35.4731C101.346 35.4731 101.424 35.4761 101.486 35.4819C101.547 35.4849 101.597 35.4922 101.634 35.5039C101.672 35.5157 101.702 35.5334 101.722 35.5569C101.742 35.5774 101.759 35.6039 101.771 35.6363L103.673 40.9369ZM101.231 36.2581H101.227L100.249 39.1024H102.222L101.231 36.2581ZM108.17 39.0495C108.17 39.3964 108.132 39.7081 108.056 39.9844C107.983 40.2608 107.873 40.496 107.727 40.69C107.584 40.8811 107.406 41.0296 107.193 41.1354C106.979 41.2383 106.735 41.2897 106.46 41.2897C106.344 41.2897 106.235 41.278 106.136 41.2544C106.037 41.231 105.939 41.1942 105.842 41.1442C105.749 41.0942 105.655 41.031 105.562 40.9546C105.468 40.8782 105.369 40.7885 105.264 40.6856V42.6701C105.264 42.6935 105.258 42.7141 105.246 42.7318C105.234 42.7494 105.215 42.7641 105.189 42.7758C105.163 42.7876 105.126 42.7964 105.08 42.8023C105.033 42.8082 104.973 42.8112 104.9 42.8112C104.83 42.8112 104.772 42.8082 104.724 42.8023C104.678 42.7964 104.64 42.7876 104.611 42.7758C104.584 42.7641 104.565 42.7494 104.554 42.7318C104.545 42.7141 104.54 42.6935 104.54 42.6701V37.1268C104.54 37.1004 104.545 37.0798 104.554 37.0651C104.562 37.0474 104.58 37.0327 104.606 37.0209C104.632 37.0092 104.666 37.0019 104.707 36.9989C104.748 36.9931 104.797 36.9901 104.856 36.9901C104.917 36.9901 104.967 36.9931 105.005 36.9989C105.046 37.0019 105.08 37.0092 105.106 37.0209C105.132 37.0327 105.15 37.0474 105.159 37.0651C105.171 37.0798 105.176 37.1004 105.176 37.1268V37.6604C105.296 37.5369 105.411 37.4296 105.522 37.3385C105.633 37.2474 105.744 37.1724 105.856 37.1136C105.969 37.0518 106.085 37.0063 106.202 36.9769C106.322 36.9445 106.447 36.9284 106.579 36.9284C106.865 36.9284 107.109 36.9842 107.311 37.096C107.512 37.2077 107.676 37.3605 107.802 37.5545C107.93 37.7486 108.023 37.975 108.082 38.2337C108.141 38.4895 108.17 38.7614 108.17 39.0495ZM107.407 39.1333C107.407 38.9305 107.391 38.7349 107.359 38.5468C107.329 38.3557 107.277 38.1866 107.201 38.0396C107.128 37.8927 107.029 37.7751 106.903 37.6868C106.777 37.5987 106.621 37.5545 106.434 37.5545C106.34 37.5545 106.248 37.5693 106.158 37.5987C106.067 37.6251 105.975 37.6692 105.882 37.731C105.788 37.7898 105.691 37.8691 105.588 37.9691C105.486 38.0661 105.378 38.1866 105.264 38.3307V39.9094C105.462 40.1534 105.651 40.3401 105.829 40.4695C106.008 40.5989 106.194 40.6636 106.39 40.6636C106.571 40.6636 106.726 40.6194 106.855 40.5312C106.987 40.443 107.092 40.3254 107.171 40.1785C107.252 40.0315 107.312 39.8668 107.35 39.6845C107.388 39.5023 107.407 39.3185 107.407 39.1333ZM112.886 39.0495C112.886 39.3964 112.848 39.7081 112.772 39.9844C112.699 40.2608 112.589 40.496 112.443 40.69C112.3 40.8811 112.122 41.0296 111.909 41.1354C111.696 41.2383 111.452 41.2897 111.177 41.2897C111.06 41.2897 110.952 41.278 110.852 41.2544C110.753 41.231 110.655 41.1942 110.559 41.1442C110.465 41.0942 110.372 41.031 110.278 40.9546C110.185 40.8782 110.085 40.7885 109.98 40.6856V42.6701C109.98 42.6935 109.974 42.7141 109.963 42.7318C109.951 42.7494 109.932 42.7641 109.906 42.7758C109.879 42.7876 109.843 42.7964 109.796 42.8023C109.749 42.8082 109.689 42.8112 109.616 42.8112C109.546 42.8112 109.488 42.8082 109.441 42.8023C109.394 42.7964 109.356 42.7876 109.327 42.7758C109.3 42.7641 109.282 42.7494 109.27 42.7318C109.261 42.7141 109.257 42.6935 109.257 42.6701V37.1268C109.257 37.1004 109.261 37.0798 109.27 37.0651C109.279 37.0474 109.297 37.0327 109.323 37.0209C109.349 37.0092 109.382 37.0019 109.423 36.9989C109.464 36.9931 109.514 36.9901 109.573 36.9901C109.634 36.9901 109.684 36.9931 109.721 36.9989C109.762 37.0019 109.796 37.0092 109.822 37.0209C109.849 37.0327 109.866 37.0474 109.875 37.0651C109.887 37.0798 109.892 37.1004 109.892 37.1268V37.6604C110.012 37.5369 110.127 37.4296 110.239 37.3385C110.35 37.2474 110.461 37.1724 110.572 37.1136C110.686 37.0518 110.801 37.0063 110.918 36.9769C111.038 36.9445 111.164 36.9284 111.295 36.9284C111.582 36.9284 111.825 36.9842 112.027 37.096C112.229 37.2077 112.392 37.3605 112.518 37.5545C112.647 37.7486 112.74 37.975 112.799 38.2337C112.857 38.4895 112.886 38.7614 112.886 39.0495ZM112.124 39.1333C112.124 38.9305 112.107 38.7349 112.075 38.5468C112.046 38.3557 111.994 38.1866 111.918 38.0396C111.844 37.8927 111.745 37.7751 111.619 37.6868C111.494 37.5987 111.338 37.5545 111.15 37.5545C111.057 37.5545 110.965 37.5693 110.874 37.5987C110.784 37.6251 110.692 37.6692 110.598 37.731C110.504 37.7898 110.407 37.8691 110.305 37.9691C110.202 38.0661 110.094 38.1866 109.98 38.3307V39.9094C110.179 40.1534 110.368 40.3401 110.545 40.4695C110.724 40.5989 110.911 40.6636 111.106 40.6636C111.288 40.6636 111.443 40.6194 111.571 40.5312C111.703 40.443 111.808 40.3254 111.887 40.1785C111.969 40.0315 112.028 39.8668 112.066 39.6845C112.105 39.5023 112.124 39.3185 112.124 39.1333ZM114.697 41.0957C114.697 41.1192 114.691 41.1398 114.679 41.1575C114.668 41.1721 114.648 41.1853 114.622 41.1971C114.596 41.2089 114.559 41.2177 114.513 41.2236C114.466 41.2295 114.406 41.2324 114.333 41.2324C114.262 41.2324 114.204 41.2295 114.158 41.2236C114.11 41.2177 114.073 41.2089 114.044 41.1971C114.017 41.1853 113.998 41.1721 113.986 41.1575C113.977 41.1398 113.973 41.1192 113.973 41.0957V35.2041C113.973 35.1806 113.977 35.16 113.986 35.1424C113.998 35.1247 114.017 35.11 114.044 35.0983C114.073 35.0865 114.11 35.0777 114.158 35.0718C114.204 35.0659 114.262 35.063 114.333 35.063C114.406 35.063 114.466 35.0659 114.513 35.0718C114.559 35.0777 114.596 35.0865 114.622 35.0983C114.648 35.11 114.668 35.1247 114.679 35.1424C114.691 35.16 114.697 35.1806 114.697 35.2041V41.0957ZM116.757 41.0957C116.757 41.1192 116.751 41.1398 116.739 41.1575C116.727 41.1721 116.709 41.1853 116.682 41.1971C116.656 41.2089 116.619 41.2177 116.572 41.2236C116.526 41.2295 116.466 41.2324 116.393 41.2324C116.323 41.2324 116.264 41.2295 116.218 41.2236C116.171 41.2177 116.133 41.2089 116.104 41.1971C116.077 41.1853 116.058 41.1721 116.047 41.1575C116.038 41.1398 116.033 41.1192 116.033 41.0957V37.1268C116.033 37.1062 116.038 37.0871 116.047 37.0695C116.058 37.0518 116.077 37.0372 116.104 37.0254C116.133 37.0136 116.171 37.0048 116.218 36.9989C116.264 36.9931 116.323 36.9901 116.393 36.9901C116.466 36.9901 116.526 36.9931 116.572 36.9989C116.619 37.0048 116.656 37.0136 116.682 37.0254C116.709 37.0372 116.727 37.0518 116.739 37.0695C116.751 37.0871 116.757 37.1062 116.757 37.1268V41.0957ZM116.84 35.7862C116.84 35.9567 116.808 36.0728 116.743 36.1346C116.679 36.1963 116.561 36.2272 116.388 36.2272C116.219 36.2272 116.102 36.1978 116.038 36.139C115.976 36.0773 115.946 35.9626 115.946 35.795C115.946 35.6245 115.978 35.5084 116.042 35.4467C116.107 35.3849 116.225 35.354 116.397 35.354C116.567 35.354 116.682 35.3849 116.743 35.4467C116.808 35.5054 116.84 35.6186 116.84 35.7862ZM120.929 40.4916C120.929 40.5415 120.928 40.5856 120.925 40.6239C120.922 40.6591 120.917 40.69 120.908 40.7164C120.902 40.74 120.893 40.762 120.881 40.7826C120.873 40.8002 120.849 40.8282 120.811 40.8664C120.776 40.9016 120.715 40.9473 120.627 41.0031C120.54 41.056 120.44 41.1045 120.329 41.1486C120.221 41.1898 120.102 41.2236 119.974 41.25C119.845 41.2765 119.713 41.2897 119.575 41.2897C119.292 41.2897 119.04 41.2427 118.821 41.1486C118.602 41.0546 118.418 40.9178 118.269 40.7385C118.122 40.5562 118.01 40.3342 117.931 40.0726C117.855 39.808 117.817 39.5037 117.817 39.1598C117.817 38.7688 117.864 38.4336 117.958 38.1543C118.054 37.8721 118.184 37.6413 118.348 37.462C118.514 37.2826 118.709 37.1503 118.931 37.0651C119.156 36.9769 119.398 36.9328 119.658 36.9328C119.784 36.9328 119.906 36.9445 120.022 36.9681C120.142 36.9916 120.252 37.0224 120.351 37.0606C120.45 37.0989 120.538 37.143 120.614 37.1929C120.693 37.243 120.75 37.2856 120.785 37.3209C120.82 37.3561 120.843 37.3841 120.855 37.4046C120.869 37.4252 120.881 37.4502 120.89 37.4796C120.899 37.506 120.905 37.5369 120.908 37.5722C120.91 37.6075 120.912 37.6516 120.912 37.7045C120.912 37.8192 120.899 37.9 120.873 37.9471C120.846 37.9912 120.814 38.0132 120.776 38.0132C120.733 38.0132 120.681 37.9897 120.623 37.9427C120.567 37.8927 120.496 37.8383 120.408 37.7795C120.32 37.7207 120.214 37.6678 120.088 37.6207C119.965 37.5707 119.819 37.5457 119.65 37.5457C119.302 37.5457 119.034 37.681 118.847 37.9515C118.663 38.219 118.571 38.6085 118.571 39.1201C118.571 39.3758 118.595 39.6007 118.641 39.7948C118.691 39.9859 118.763 40.1461 118.856 40.2755C118.949 40.4048 119.064 40.5018 119.198 40.5665C119.336 40.6283 119.492 40.6591 119.667 40.6591C119.834 40.6591 119.98 40.6327 120.105 40.5797C120.231 40.5268 120.339 40.4695 120.43 40.4077C120.523 40.3431 120.601 40.2858 120.662 40.2357C120.726 40.1829 120.776 40.1564 120.811 40.1564C120.832 40.1564 120.849 40.1623 120.864 40.174C120.878 40.1858 120.89 40.2064 120.899 40.2357C120.91 40.2622 120.918 40.2975 120.92 40.3416C120.927 40.3828 120.929 40.4327 120.929 40.4916ZM124.782 41.1001C124.782 41.1354 124.77 41.1619 124.747 41.1795C124.724 41.1971 124.692 41.2104 124.651 41.2192C124.61 41.228 124.55 41.2324 124.471 41.2324C124.395 41.2324 124.334 41.228 124.287 41.2192C124.243 41.2104 124.211 41.1971 124.191 41.1795C124.17 41.1619 124.16 41.1354 124.16 41.1001V40.7032C123.988 40.8884 123.795 41.0325 123.582 41.1354C123.371 41.2383 123.147 41.2897 122.911 41.2897C122.704 41.2897 122.515 41.2618 122.345 41.2059C122.179 41.153 122.035 41.0751 121.916 40.9722C121.799 40.8693 121.707 40.7429 121.64 40.593C121.575 40.443 121.543 40.2725 121.543 40.0814C121.543 39.858 121.589 39.6639 121.679 39.4993C121.769 39.3347 121.9 39.198 122.069 39.0892C122.238 38.9804 122.446 38.8996 122.692 38.8467C122.937 38.7908 123.213 38.7629 123.52 38.7629H124.064V38.4542C124.064 38.3013 124.047 38.1661 124.015 38.0484C123.983 37.9309 123.931 37.8338 123.858 37.7574C123.787 37.678 123.695 37.6192 123.582 37.581C123.467 37.5399 123.327 37.5193 123.161 37.5193C122.982 37.5193 122.821 37.5413 122.678 37.5854C122.538 37.6266 122.414 37.6736 122.306 37.7265C122.201 37.7765 122.112 37.8236 122.039 37.8676C121.969 37.9089 121.916 37.9294 121.88 37.9294C121.857 37.9294 121.837 37.9235 121.819 37.9118C121.802 37.9 121.786 37.8824 121.771 37.8588C121.759 37.8353 121.751 37.806 121.745 37.7707C121.739 37.7325 121.736 37.6912 121.736 37.6472C121.736 37.5737 121.74 37.5163 121.749 37.4752C121.761 37.4311 121.786 37.3899 121.824 37.3517C121.865 37.3135 121.933 37.2694 122.03 37.2194C122.126 37.1665 122.237 37.1194 122.363 37.0783C122.489 37.0342 122.626 36.9989 122.775 36.9725C122.924 36.9431 123.074 36.9284 123.226 36.9284C123.51 36.9284 123.751 36.9607 123.95 37.0254C124.148 37.09 124.309 37.1856 124.432 37.312C124.554 37.4355 124.644 37.5899 124.699 37.7751C124.755 37.9603 124.782 38.1764 124.782 38.4233V41.1001ZM124.064 39.2877H123.445C123.247 39.2877 123.074 39.3053 122.929 39.3406C122.782 39.3729 122.661 39.4229 122.564 39.4905C122.468 39.5552 122.397 39.6345 122.349 39.7286C122.306 39.8198 122.284 39.9256 122.284 40.0461C122.284 40.2519 122.348 40.4166 122.477 40.54C122.608 40.6606 122.791 40.7208 123.024 40.7208C123.215 40.7208 123.39 40.6724 123.551 40.5753C123.715 40.4783 123.885 40.3298 124.064 40.13V39.2877ZM129.459 37.0121C129.547 37.0121 129.607 37.0327 129.639 37.0739C129.671 37.1121 129.687 37.1695 129.687 37.2459V41.0957C129.687 41.1192 129.681 41.1398 129.67 41.1575C129.658 41.1721 129.638 41.1853 129.608 41.1971C129.582 41.2089 129.546 41.2177 129.498 41.2236C129.452 41.2295 129.395 41.2324 129.328 41.2324C129.255 41.2324 129.195 41.2295 129.148 41.2236C129.101 41.2177 129.063 41.2089 129.034 41.1971C129.008 41.1853 128.989 41.1721 128.977 41.1575C128.965 41.1398 128.96 41.1192 128.96 41.0957V37.6163H126.922V39.8301C126.922 40.1035 126.961 40.3108 127.04 40.4519C127.122 40.5901 127.266 40.6591 127.474 40.6591C127.541 40.6591 127.601 40.6532 127.653 40.6415C127.706 40.6268 127.753 40.6121 127.793 40.5974C127.834 40.5827 127.87 40.5695 127.899 40.5577C127.928 40.543 127.954 40.5356 127.978 40.5356C127.993 40.5356 128.005 40.5401 128.017 40.5489C128.032 40.5548 128.042 40.568 128.048 40.5885C128.057 40.6091 128.064 40.6371 128.07 40.6724C128.076 40.7076 128.078 40.7517 128.078 40.8047C128.078 40.8899 128.073 40.9575 128.061 41.0075C128.049 41.0546 128.032 41.0913 128.008 41.1178C127.985 41.1413 127.95 41.1633 127.903 41.1839C127.856 41.2045 127.802 41.2206 127.741 41.2324C127.683 41.2471 127.62 41.2589 127.553 41.2677C127.485 41.2765 127.418 41.2809 127.351 41.2809C127.147 41.2809 126.971 41.2544 126.825 41.2015C126.679 41.1457 126.559 41.0634 126.465 40.9546C126.372 40.8429 126.303 40.7032 126.259 40.5356C126.219 40.3651 126.198 40.1652 126.198 39.9359V37.6163H125.646C125.602 37.6163 125.567 37.5928 125.541 37.5457C125.514 37.4987 125.502 37.4223 125.502 37.3164C125.502 37.2606 125.504 37.2135 125.51 37.1753C125.519 37.1371 125.529 37.1062 125.541 37.0827C125.553 37.0562 125.567 37.0386 125.585 37.0298C125.605 37.018 125.627 37.0121 125.65 37.0121H126.198V36.0684C126.198 36.0479 126.203 36.0287 126.211 36.0111C126.223 35.9935 126.242 35.9788 126.268 35.967C126.298 35.9523 126.335 35.942 126.382 35.9362C126.429 35.9302 126.487 35.9273 126.557 35.9273C126.631 35.9273 126.69 35.9302 126.738 35.9362C126.784 35.942 126.821 35.9523 126.847 35.967C126.873 35.9788 126.892 35.9935 126.904 36.0111C126.915 36.0287 126.922 36.0479 126.922 36.0684V37.0121H129.459ZM129.771 35.7862C129.771 35.9567 129.739 36.0728 129.674 36.1346C129.61 36.1963 129.491 36.2272 129.319 36.2272C129.149 36.2272 129.033 36.1978 128.968 36.139C128.907 36.0773 128.876 35.9626 128.876 35.795C128.876 35.6245 128.908 35.5084 128.973 35.4467C129.037 35.3849 129.156 35.354 129.328 35.354C129.497 35.354 129.613 35.3849 129.674 35.4467C129.739 35.5054 129.771 35.6186 129.771 35.7862ZM134.702 39.0671C134.702 39.3906 134.659 39.6889 134.574 39.9624C134.49 40.2328 134.363 40.4666 134.193 40.6636C134.027 40.8605 133.816 41.0149 133.562 41.1266C133.311 41.2354 133.019 41.2897 132.685 41.2897C132.361 41.2897 132.078 41.2412 131.835 41.1442C131.595 41.0472 131.395 40.9061 131.234 40.7208C131.074 40.5356 130.954 40.3108 130.875 40.0461C130.796 39.7816 130.757 39.4817 130.757 39.1466C130.757 38.8231 130.798 38.5262 130.879 38.2557C130.964 37.9823 131.09 37.7471 131.256 37.5501C131.426 37.3532 131.636 37.2003 131.887 37.0915C132.139 36.9827 132.433 36.9284 132.769 36.9284C133.093 36.9284 133.375 36.9769 133.614 37.0739C133.857 37.1709 134.059 37.312 134.22 37.4972C134.38 37.6824 134.5 37.9073 134.579 38.1719C134.661 38.4366 134.702 38.7349 134.702 39.0671ZM133.939 39.1157C133.939 38.9011 133.918 38.6982 133.878 38.5071C133.839 38.316 133.775 38.1484 133.685 38.0044C133.594 37.8603 133.471 37.7471 133.316 37.6648C133.162 37.5795 132.969 37.5369 132.738 37.5369C132.525 37.5369 132.341 37.5751 132.186 37.6516C132.034 37.728 131.908 37.8368 131.809 37.9779C131.71 38.1161 131.635 38.2807 131.585 38.4718C131.538 38.6629 131.515 38.8717 131.515 39.098C131.515 39.3156 131.534 39.5199 131.572 39.711C131.613 39.9021 131.679 40.0697 131.769 40.2137C131.863 40.3549 131.987 40.468 132.142 40.5533C132.296 40.6356 132.489 40.6768 132.721 40.6768C132.931 40.6768 133.113 40.6385 133.268 40.5621C133.423 40.4857 133.55 40.3784 133.65 40.2402C133.749 40.102 133.822 39.9374 133.869 39.7463C133.916 39.5552 133.939 39.345 133.939 39.1157ZM139.164 41.0957C139.164 41.1192 139.158 41.1398 139.146 41.1575C139.135 41.1721 139.116 41.1853 139.089 41.1971C139.063 41.2089 139.026 41.2177 138.98 41.2236C138.933 41.2295 138.874 41.2324 138.804 41.2324C138.731 41.2324 138.671 41.2295 138.625 41.2236C138.578 41.2177 138.542 41.2089 138.515 41.1971C138.489 41.1853 138.47 41.1721 138.458 41.1575C138.446 41.1398 138.441 41.1192 138.441 41.0957V38.7717C138.441 38.5453 138.423 38.363 138.388 38.2249C138.353 38.0867 138.302 37.9676 138.235 37.8676C138.167 37.7677 138.08 37.6913 137.972 37.6384C137.867 37.5854 137.744 37.559 137.603 37.559C137.422 37.559 137.241 37.6236 137.06 37.753C136.879 37.8824 136.689 38.072 136.49 38.3219V41.0957C136.49 41.1192 136.484 41.1398 136.472 41.1575C136.461 41.1721 136.442 41.1853 136.416 41.1971C136.389 41.2089 136.353 41.2177 136.306 41.2236C136.259 41.2295 136.199 41.2324 136.126 41.2324C136.056 41.2324 135.998 41.2295 135.951 41.2236C135.904 41.2177 135.866 41.2089 135.837 41.1971C135.81 41.1853 135.792 41.1721 135.78 41.1575C135.771 41.1398 135.767 41.1192 135.767 41.0957V37.1268C135.767 37.1033 135.771 37.0842 135.78 37.0695C135.788 37.0518 135.806 37.0372 135.833 37.0254C135.859 37.0107 135.892 37.0019 135.933 36.9989C135.974 36.9931 136.029 36.9901 136.095 36.9901C136.16 36.9901 136.213 36.9931 136.254 36.9989C136.297 37.0019 136.331 37.0107 136.354 37.0254C136.378 37.0372 136.394 37.0518 136.402 37.0695C136.414 37.0842 136.42 37.1033 136.42 37.1268V37.6516C136.642 37.4017 136.863 37.2194 137.082 37.1048C137.304 36.9871 137.527 36.9284 137.752 36.9284C138.015 36.9284 138.236 36.9739 138.414 37.0651C138.595 37.1533 138.741 37.2723 138.852 37.4223C138.963 37.5722 139.043 37.7486 139.089 37.9515C139.139 38.1513 139.164 38.3924 139.164 38.6747V41.0957ZM145.647 39.6052C145.647 39.8727 145.597 40.1108 145.498 40.3196C145.401 40.5283 145.265 40.7062 145.09 40.8532C144.917 40.9972 144.713 41.106 144.476 41.1795C144.242 41.253 143.99 41.2897 143.718 41.2897C143.528 41.2897 143.352 41.2736 143.188 41.2412C143.027 41.2089 142.882 41.1692 142.754 41.1222C142.628 41.0751 142.521 41.0266 142.434 40.9767C142.349 40.9267 142.289 40.884 142.254 40.8488C142.222 40.8135 142.197 40.7694 142.179 40.7164C142.165 40.6606 142.158 40.5871 142.158 40.496C142.158 40.4313 142.16 40.3784 142.167 40.3372C142.172 40.2931 142.181 40.2578 142.193 40.2313C142.204 40.2049 142.219 40.1873 142.237 40.1785C142.254 40.1667 142.274 40.1608 142.298 40.1608C142.339 40.1608 142.395 40.1858 142.469 40.2357C142.545 40.2858 142.641 40.3401 142.758 40.3989C142.875 40.4577 143.015 40.5136 143.179 40.5665C143.345 40.6165 143.537 40.6415 143.753 40.6415C143.916 40.6415 144.066 40.6194 144.2 40.5753C144.337 40.5312 144.455 40.4695 144.551 40.3901C144.65 40.3078 144.726 40.2079 144.779 40.0902C144.832 39.9726 144.858 39.8389 144.858 39.6889C144.858 39.5272 144.821 39.3891 144.748 39.2744C144.675 39.1598 144.579 39.0598 144.459 38.9746C144.339 38.8863 144.202 38.807 144.047 38.7364C143.895 38.6629 143.739 38.5894 143.578 38.5159C143.417 38.4395 143.261 38.3557 143.109 38.2646C142.957 38.1734 142.821 38.0661 142.701 37.9427C142.581 37.8192 142.484 37.6751 142.407 37.5105C142.334 37.3429 142.298 37.143 142.298 36.9107C142.298 36.6726 142.34 36.4609 142.425 36.2757C142.513 36.0876 142.632 35.9302 142.784 35.8038C142.939 35.6774 143.122 35.5819 143.332 35.5172C143.546 35.4496 143.775 35.4158 144.02 35.4158C144.146 35.4158 144.272 35.4275 144.397 35.4511C144.526 35.4716 144.646 35.501 144.757 35.5392C144.871 35.5745 144.972 35.6157 145.059 35.6627C145.147 35.7068 145.204 35.7436 145.23 35.773C145.26 35.7994 145.279 35.8215 145.287 35.8391C145.296 35.8538 145.303 35.8744 145.309 35.9009C145.315 35.9244 145.319 35.9538 145.322 35.9891C145.325 36.0243 145.326 36.0699 145.326 36.1258C145.326 36.1787 145.324 36.2257 145.318 36.2669C145.315 36.308 145.309 36.3433 145.301 36.3727C145.292 36.3992 145.279 36.4197 145.261 36.4345C145.246 36.4462 145.229 36.4521 145.208 36.4521C145.176 36.4521 145.125 36.4315 145.055 36.3904C144.988 36.3492 144.905 36.3036 144.805 36.2537C144.706 36.2007 144.588 36.1537 144.45 36.1126C144.315 36.0684 144.164 36.0464 143.994 36.0464C143.836 36.0464 143.699 36.0684 143.582 36.1126C143.465 36.1537 143.369 36.2095 143.293 36.2801C143.217 36.3506 143.16 36.4345 143.122 36.5315C143.084 36.6285 143.065 36.7314 143.065 36.8402C143.065 36.9989 143.101 37.1356 143.175 37.2503C143.248 37.3649 143.344 37.4664 143.464 37.5545C143.587 37.6428 143.725 37.7236 143.88 37.7971C144.035 37.8706 144.193 37.9456 144.354 38.022C144.515 38.0955 144.672 38.1778 144.827 38.269C144.982 38.3571 145.119 38.463 145.239 38.5865C145.362 38.707 145.459 38.8511 145.533 39.0186C145.609 39.1833 145.647 39.3788 145.647 39.6052ZM148.329 41.2059L147.803 42.6656C147.786 42.7127 147.741 42.748 147.667 42.7714C147.597 42.7979 147.489 42.8112 147.343 42.8112C147.267 42.8112 147.205 42.8067 147.159 42.7979C147.112 42.792 147.076 42.7803 147.049 42.7626C147.026 42.745 147.013 42.7215 147.01 42.6921C147.007 42.6627 147.014 42.6274 147.031 42.5862L147.575 41.2059C147.549 41.1942 147.524 41.1751 147.501 41.1486C147.478 41.1222 147.461 41.0942 147.452 41.0648L146.046 37.2723C146.022 37.2106 146.01 37.1621 146.01 37.1268C146.01 37.0915 146.022 37.0636 146.046 37.043C146.069 37.0224 146.107 37.0092 146.16 37.0033C146.212 36.9945 146.282 36.9901 146.37 36.9901C146.458 36.9901 146.526 36.9931 146.576 36.9989C146.626 37.0019 146.665 37.0092 146.694 37.0209C146.723 37.0327 146.744 37.0504 146.755 37.0739C146.77 37.0944 146.785 37.1239 146.799 37.1621L147.926 40.346H147.939L149.026 37.1445C149.043 37.0886 149.064 37.0533 149.088 37.0386C149.114 37.021 149.152 37.0092 149.202 37.0033C149.251 36.9945 149.323 36.9901 149.416 36.9901C149.498 36.9901 149.565 36.9945 149.618 37.0033C149.671 37.0092 149.708 37.0224 149.732 37.043C149.758 37.0636 149.771 37.0915 149.771 37.1268C149.771 37.1621 149.763 37.2062 149.745 37.2591L148.329 41.2059ZM152.989 40.0153C152.989 40.2181 152.951 40.3989 152.875 40.5577C152.801 40.7164 152.696 40.8502 152.559 40.959C152.422 41.0678 152.258 41.1501 152.068 41.2059C151.878 41.2618 151.669 41.2897 151.441 41.2897C151.301 41.2897 151.166 41.278 151.038 41.2544C150.912 41.2339 150.798 41.2074 150.696 41.1751C150.597 41.1398 150.512 41.1045 150.442 41.0692C150.372 41.031 150.32 40.9972 150.288 40.9678C150.256 40.9384 150.233 40.8972 150.218 40.8444C150.204 40.7914 150.196 40.7194 150.196 40.6283C150.196 40.5724 150.199 40.5254 150.205 40.4872C150.211 40.4489 150.218 40.4181 150.227 40.3945C150.236 40.371 150.247 40.3548 150.262 40.346C150.28 40.3342 150.299 40.3284 150.319 40.3284C150.351 40.3284 150.398 40.349 150.46 40.3901C150.523 40.4283 150.601 40.471 150.692 40.518C150.785 40.5651 150.895 40.6091 151.021 40.6503C151.146 40.6885 151.291 40.7076 151.454 40.7076C151.577 40.7076 151.688 40.6944 151.788 40.668C151.887 40.6415 151.973 40.6033 152.046 40.5533C152.119 40.5004 152.175 40.4342 152.213 40.3549C152.254 40.2755 152.274 40.1814 152.274 40.0726C152.274 39.9609 152.245 39.8668 152.186 39.7904C152.131 39.714 152.056 39.6463 151.963 39.5875C151.869 39.5287 151.764 39.4773 151.647 39.4332C151.531 39.3861 151.409 39.3376 151.284 39.2877C151.161 39.2377 151.04 39.1818 150.92 39.1201C150.803 39.0554 150.697 38.9775 150.604 38.8863C150.511 38.7952 150.435 38.6865 150.376 38.56C150.32 38.4336 150.293 38.2822 150.293 38.1058C150.293 37.95 150.322 37.8015 150.38 37.6604C150.442 37.5163 150.532 37.3914 150.653 37.2856C150.772 37.1768 150.921 37.09 151.099 37.0254C151.28 36.9607 151.491 36.9284 151.731 36.9284C151.836 36.9284 151.941 36.9372 152.046 36.9549C152.152 36.9725 152.246 36.9945 152.331 37.0209C152.416 37.0474 152.487 37.0768 152.546 37.1092C152.607 37.1386 152.653 37.165 152.682 37.1885C152.714 37.2121 152.735 37.2326 152.743 37.2503C152.755 37.2679 152.762 37.2885 152.765 37.312C152.771 37.3326 152.775 37.3591 152.778 37.3914C152.784 37.4238 152.787 37.4634 152.787 37.5105C152.787 37.5605 152.784 37.6045 152.778 37.6428C152.775 37.678 152.768 37.7075 152.756 37.731C152.748 37.7545 152.736 37.7721 152.721 37.7839C152.707 37.7927 152.69 37.7971 152.673 37.7971C152.647 37.7971 152.609 37.7809 152.559 37.7486C152.51 37.7163 152.445 37.6824 152.366 37.6472C152.287 37.609 152.194 37.5737 152.085 37.5413C151.981 37.509 151.859 37.4928 151.722 37.4928C151.599 37.4928 151.491 37.5075 151.398 37.5369C151.304 37.5634 151.226 37.6031 151.165 37.656C151.107 37.706 151.062 37.7662 151.03 37.8368C151 37.9073 150.985 37.9838 150.985 38.0661C150.985 38.1808 151.014 38.2778 151.073 38.3572C151.132 38.4336 151.207 38.5012 151.301 38.56C151.395 38.6188 151.501 38.6717 151.621 38.7188C151.741 38.7658 151.862 38.8143 151.985 38.8643C152.111 38.9143 152.233 38.9702 152.353 39.0319C152.476 39.0936 152.584 39.1686 152.677 39.2568C152.771 39.345 152.845 39.4508 152.901 39.5743C152.96 39.6978 152.989 39.8447 152.989 40.0153ZM155.974 40.8047C155.974 40.8899 155.968 40.9575 155.956 41.0075C155.944 41.0575 155.927 41.0942 155.903 41.1178C155.88 41.1413 155.845 41.1633 155.799 41.1839C155.751 41.2045 155.698 41.2206 155.636 41.2324C155.577 41.2471 155.515 41.2589 155.447 41.2677C155.381 41.2765 155.313 41.2809 155.246 41.2809C155.042 41.2809 154.866 41.2544 154.72 41.2015C154.574 41.1457 154.454 41.0634 154.361 40.9546C154.267 40.8429 154.198 40.7032 154.155 40.5356C154.114 40.3651 154.093 40.1652 154.093 39.9359V37.6163H153.541C153.497 37.6163 153.462 37.5928 153.436 37.5457C153.41 37.4987 153.396 37.4223 153.396 37.3164C153.396 37.2606 153.399 37.2135 153.405 37.1753C153.414 37.1371 153.424 37.1062 153.436 37.0827C153.447 37.0562 153.462 37.0386 153.48 37.0298C153.5 37.018 153.522 37.0121 153.545 37.0121H154.093V36.0684C154.093 36.0479 154.097 36.0287 154.106 36.0111C154.118 35.9935 154.137 35.9788 154.163 35.967C154.193 35.9523 154.23 35.942 154.278 35.9362C154.324 35.9302 154.382 35.9273 154.453 35.9273C154.525 35.9273 154.586 35.9302 154.632 35.9362C154.679 35.942 154.716 35.9523 154.742 35.967C154.768 35.9788 154.787 35.9935 154.799 36.0111C154.811 36.0287 154.817 36.0479 154.817 36.0684V37.0121H155.829C155.852 37.0121 155.873 37.018 155.891 37.0298C155.908 37.0386 155.923 37.0562 155.934 37.0827C155.949 37.1062 155.959 37.1371 155.965 37.1753C155.971 37.2135 155.974 37.2606 155.974 37.3164C155.974 37.4223 155.961 37.4987 155.934 37.5457C155.908 37.5928 155.873 37.6163 155.829 37.6163H154.817V39.8301C154.817 40.1035 154.856 40.3108 154.935 40.4519C155.016 40.5901 155.161 40.6591 155.369 40.6591C155.436 40.6591 155.496 40.6532 155.548 40.6415C155.601 40.6268 155.648 40.6121 155.689 40.5974C155.73 40.5827 155.765 40.5695 155.794 40.5577C155.823 40.543 155.85 40.5356 155.873 40.5356C155.887 40.5356 155.901 40.5401 155.912 40.5489C155.927 40.5548 155.937 40.568 155.943 40.5885C155.952 40.6091 155.959 40.6371 155.965 40.6724C155.971 40.7076 155.974 40.7517 155.974 40.8047ZM160.199 38.9393C160.199 39.0539 160.17 39.1362 160.111 39.1862C160.056 39.2333 159.991 39.2568 159.918 39.2568H157.332C157.332 39.4773 157.354 39.6757 157.398 39.8521C157.442 40.0285 157.515 40.1799 157.617 40.3063C157.72 40.4327 157.853 40.5298 158.016 40.5974C158.18 40.665 158.38 40.6988 158.617 40.6988C158.804 40.6988 158.97 40.6841 159.117 40.6547C159.262 40.6223 159.388 40.5871 159.493 40.5489C159.601 40.5106 159.689 40.4768 159.756 40.4474C159.826 40.4151 159.879 40.3989 159.914 40.3989C159.935 40.3989 159.952 40.4048 159.967 40.4166C159.984 40.4254 159.997 40.4401 160.006 40.4607C160.015 40.4812 160.021 40.5106 160.024 40.5489C160.029 40.5841 160.032 40.6283 160.032 40.6812C160.032 40.7194 160.031 40.7532 160.028 40.7826C160.025 40.8091 160.021 40.834 160.015 40.8576C160.012 40.8782 160.005 40.8972 159.993 40.9149C159.984 40.9325 159.971 40.9502 159.954 40.9678C159.939 40.9825 159.892 41.009 159.813 41.0472C159.734 41.0824 159.632 41.1178 159.507 41.153C159.381 41.1883 159.234 41.2192 159.068 41.2456C158.905 41.275 158.729 41.2897 158.542 41.2897C158.218 41.2897 157.933 41.2442 157.688 41.153C157.445 41.0619 157.24 40.9267 157.074 40.7473C156.907 40.568 156.782 40.3431 156.697 40.0726C156.612 39.8021 156.569 39.4875 156.569 39.1289C156.569 38.7878 156.614 38.4821 156.701 38.2116C156.789 37.9382 156.914 37.7075 157.078 37.5193C157.245 37.3282 157.445 37.1827 157.679 37.0827C157.913 36.9798 158.174 36.9284 158.464 36.9284C158.773 36.9284 159.036 36.9783 159.252 37.0783C159.471 37.1783 159.651 37.3135 159.792 37.484C159.932 37.6516 160.034 37.85 160.098 38.0793C160.165 38.3057 160.199 38.5483 160.199 38.807V38.9393ZM159.471 38.7232C159.48 38.341 159.395 38.0411 159.217 37.8236C159.042 37.606 158.781 37.4972 158.433 37.4972C158.254 37.4972 158.098 37.5311 157.964 37.5987C157.829 37.6663 157.717 37.7559 157.626 37.8676C157.536 37.9794 157.465 38.1102 157.415 38.2601C157.366 38.4072 157.338 38.5615 157.332 38.7232H159.471ZM167.155 41.0957C167.155 41.1192 167.149 41.1398 167.137 41.1575C167.126 41.1721 167.107 41.1853 167.081 41.1971C167.054 41.2089 167.018 41.2177 166.971 41.2236C166.924 41.2295 166.866 41.2324 166.796 41.2324C166.723 41.2324 166.663 41.2295 166.616 41.2236C166.569 41.2177 166.532 41.2089 166.502 41.1971C166.476 41.1853 166.457 41.1721 166.445 41.1575C166.433 41.1398 166.428 41.1192 166.428 41.0957V38.6835C166.428 38.5159 166.413 38.363 166.384 38.2249C166.355 38.0867 166.308 37.9676 166.244 37.8676C166.179 37.7677 166.097 37.6913 165.998 37.6384C165.899 37.5854 165.782 37.559 165.647 37.559C165.481 37.559 165.313 37.6236 165.143 37.753C164.977 37.8824 164.793 38.072 164.591 38.3219V41.0957C164.591 41.1192 164.585 41.1398 164.573 41.1575C164.562 41.1721 164.541 41.1853 164.512 41.1971C164.486 41.2089 164.449 41.2177 164.402 41.2236C164.356 41.2295 164.297 41.2324 164.227 41.2324C164.16 41.2324 164.102 41.2295 164.052 41.2236C164.005 41.2177 163.967 41.2089 163.938 41.1971C163.911 41.1853 163.893 41.1721 163.881 41.1575C163.872 41.1398 163.868 41.1192 163.868 41.0957V38.6835C163.868 38.5159 163.852 38.363 163.819 38.2249C163.787 38.0867 163.739 37.9676 163.675 37.8676C163.611 37.7677 163.529 37.6913 163.429 37.6384C163.333 37.5854 163.217 37.559 163.083 37.559C162.917 37.559 162.749 37.6236 162.579 37.753C162.409 37.8824 162.225 38.072 162.027 38.3219V41.0957C162.027 41.1192 162.021 41.1398 162.009 41.1575C161.998 41.1721 161.979 41.1853 161.952 41.1971C161.926 41.2089 161.889 41.2177 161.843 41.2236C161.796 41.2295 161.736 41.2324 161.663 41.2324C161.593 41.2324 161.534 41.2295 161.488 41.2236C161.441 41.2177 161.403 41.2089 161.374 41.1971C161.347 41.1853 161.328 41.1721 161.317 41.1575C161.308 41.1398 161.304 41.1192 161.304 41.0957V37.1268C161.304 37.1033 161.308 37.0842 161.317 37.0695C161.326 37.0518 161.343 37.0372 161.369 37.0254C161.396 37.0107 161.429 37.0019 161.47 36.9989C161.511 36.9931 161.565 36.9901 161.632 36.9901C161.697 36.9901 161.749 36.9931 161.79 36.9989C161.834 37.0019 161.867 37.0107 161.891 37.0254C161.915 37.0372 161.93 37.0518 161.939 37.0695C161.951 37.0842 161.957 37.1033 161.957 37.1268V37.6516C162.179 37.4017 162.394 37.2194 162.601 37.1048C162.812 36.9871 163.023 36.9284 163.236 36.9284C163.4 36.9284 163.546 36.9475 163.675 36.9857C163.806 37.0239 163.922 37.0783 164.021 37.1489C164.121 37.2165 164.205 37.2988 164.276 37.3958C164.346 37.4899 164.404 37.5957 164.451 37.7133C164.582 37.5693 164.706 37.4472 164.823 37.3473C164.943 37.2474 165.057 37.1665 165.165 37.1048C165.276 37.043 165.383 36.9989 165.485 36.9725C165.591 36.9431 165.696 36.9284 165.801 36.9284C166.055 36.9284 166.268 36.9739 166.441 37.0651C166.613 37.1533 166.752 37.2723 166.857 37.4223C166.965 37.5722 167.042 37.7486 167.085 37.9515C167.132 38.1513 167.155 38.363 167.155 38.5865V41.0957Z" fill="white"/>
<path d="M26.6502 53.6242C41.3686 53.6242 53.3003 41.62 53.3003 26.8121C53.3003 12.0042 41.3686 0 26.6502 0C11.9317 0 0 12.0042 0 26.8121C0 41.62 11.9317 53.6242 26.6502 53.6242Z" fill="white" fill-opacity="0.25"/>
</g>
<defs>
<clipPath id="clip0">
<rect width="170" height="53.6242" fill="white"/>
</clipPath>
</defs>
</svg>
